<svg width="24" height="24" viewBox="0 0 24 24" fill="none" xmlns="http://www.w3.org/2000/svg">
<g clip-path="url(#clip0_49_1202)">
<path d="M23.2969 2H0.703125C0.314758 2 0 2.31476 0 2.70312V21.3334C0 21.7217 0.314758 22.0365 0.703125 22.0365H23.2969C23.6852 22.0365 24 21.7217 24 21.3334V2.70312C24 2.31476 23.6852 2 23.2969 2ZM7.57324 19.406V20.6302H5.21393V19.406H7.57324ZM8.97949 19.406H11.3388V20.6302H8.97949V19.406ZM12.7451 19.406H15.1046V20.6302H12.7451V19.406ZM16.5108 19.406H18.8701V20.6302H16.5108V19.406ZM1.40625 17.9998V6.03674H22.5938V17.9998H1.40625ZM16.5108 4.63049V3.40625H18.8701V4.63049H16.5108ZM15.1046 4.63049H12.7451V3.40625H15.1046V4.63049ZM11.3388 4.63049H8.97949V3.40625H11.3388V4.63049ZM7.57324 4.63049H5.21393V3.40625H7.57324V4.63049ZM22.5938 4.63049H20.2764V3.40625H22.5938V4.63049ZM3.80768 3.40625V4.63049H1.40625V3.40625H3.80768ZM1.40625 19.406H3.80768V20.6302H1.40625V19.406ZM20.2764 20.6302V19.406H22.5938V20.6302H20.2764Z" fill="white"/>
<path d="M14.6003 11.2939C14.5812 11.2799 14.5613 11.2669 14.5408 11.255L10.5176 8.90654C10.2261 8.71592 9.84302 8.69432 9.52808 8.85472C9.2179 9.01237 9.02527 9.32017 9.02527 9.65782V14.3788C9.02527 14.7165 9.2179 15.0241 9.52808 15.1819C9.66907 15.2537 9.82379 15.289 9.97778 15.289C10.1677 15.289 10.3566 15.2354 10.5176 15.1299L14.5408 12.7816C14.5613 12.7697 14.5812 12.7567 14.6003 12.7428C14.8381 12.5694 14.9747 12.3055 14.9747 12.0184C14.9747 11.7313 14.8381 11.4671 14.6003 11.2939ZM10.4317 13.5517V10.4847L13.0589 12.0182L10.4317 13.5517Z" fill="white"/>
</g>
<defs>
<clipPath id="clip0_49_1202">
<rect width="24" height="24" fill="white"/>
</clipPath>
</defs>
</svg>
