<svg width="24" height="24" viewBox="0 0 24 24" fill="none" xmlns="http://www.w3.org/2000/svg">
<g clip-path="url(#clip0_12_416)">
<mask id="path-1-outside-1_12_416" maskUnits="userSpaceOnUse" x="-0.25061" y="-0.25" width="24" height="23" fill="black">
<rect fill="white" x="-0.25061" y="-0.25" width="24" height="23"/>
<path d="M22.1242 19.5472C22.1247 19.5314 22.125 19.5156 22.125 19.5C22.1246 19.1023 21.9664 18.721 21.6852 18.4398C21.404 18.1586 21.0227 18.0004 20.625 18V11.0625L21.975 10.05C22.0219 10.0148 22.0599 9.96917 22.086 9.91666C22.112 9.86416 22.1254 9.80628 22.125 9.74767C22.1247 9.68906 22.1106 9.63136 22.0839 9.57918C22.0572 9.52701 22.0186 9.48182 21.9713 9.44723L18.75 7.09322V3C18.8495 3 18.9449 2.96049 19.0152 2.89016C19.0855 2.81984 19.125 2.72446 19.125 2.625V1.125C19.125 1.02554 19.0855 0.930161 19.0152 0.859835C18.9449 0.789509 18.8495 0.75 18.75 0.75H15C14.9006 0.75 14.8052 0.789509 14.7349 0.859835C14.6645 0.930161 14.625 1.02554 14.625 1.125V2.625C14.625 2.72446 14.6645 2.81984 14.7349 2.89016C14.8052 2.96049 14.9006 3 15 3V4.35286L12.2213 2.32223C12.1571 2.2753 12.0796 2.25001 12 2.25001C11.9205 2.25001 11.843 2.2753 11.7788 2.32223L2.02878 9.44723C1.98146 9.48182 1.9429 9.52701 1.9162 9.57918C1.88951 9.63136 1.87541 9.68906 1.87504 9.74767C1.87468 9.80628 1.88806 9.86416 1.9141 9.91666C1.94015 9.96917 1.97814 10.0148 2.02503 10.05L3.37503 11.0625V18C2.97734 18.0004 2.59607 18.1586 2.31486 18.4398C2.03366 18.721 1.87548 19.1023 1.87503 19.5C1.87503 19.5156 1.87531 19.5314 1.87587 19.5472C1.5221 19.6382 1.21368 19.8551 1.00847 20.1573C0.803264 20.4595 0.715374 20.8262 0.761293 21.1886C0.807211 21.5509 0.983783 21.8841 1.25788 22.1256C1.53197 22.367 1.88475 22.5002 2.25003 22.5H21.75C22.1153 22.5002 22.4681 22.367 22.7422 22.1256C23.0163 21.8841 23.1928 21.5509 23.2388 21.1886C23.2847 20.8262 23.1968 20.4595 22.9916 20.1573C22.7864 19.8551 22.478 19.6382 22.1242 19.5472ZM15.375 1.5H18.375V2.25H15.375V1.5ZM15.75 4.875V3H18V6.54516L15.7145 4.875H15.75ZM12 3.08944L21.1198 9.75394L20.2466 10.4088L12.2206 4.57172C12.1565 4.52509 12.0793 4.49997 12 4.49997C11.9208 4.49997 11.8435 4.52509 11.7794 4.57172L3.75345 10.4088L2.88026 9.75394L12 3.08944ZM1.50003 21C1.50024 20.8031 1.57778 20.6141 1.71596 20.4739C1.85414 20.3336 2.0419 20.2532 2.23878 20.25H2.23967C2.25884 20.2527 2.27801 20.255 2.29756 20.2562C2.3597 20.2602 2.42185 20.2485 2.47838 20.2224C2.53491 20.1963 2.58405 20.1566 2.62137 20.1067C2.65869 20.0569 2.68301 19.9985 2.69213 19.9369C2.70126 19.8753 2.6949 19.8124 2.67364 19.7539C2.64261 19.6728 2.62615 19.5868 2.62503 19.5C2.62527 19.3012 2.70436 19.1105 2.84496 18.9699C2.98556 18.8293 3.17619 18.7502 3.37503 18.75V21.75H2.25003C2.05119 21.7498 1.86056 21.6707 1.71996 21.5301C1.57936 21.3895 1.50027 21.1988 1.50003 21ZM17.625 21.75H13.125V13.5H17.625V21.75ZM18.375 21.75V13.125C18.375 13.0255 18.3355 12.9302 18.2652 12.8598C18.1949 12.7895 18.0995 12.75 18 12.75H12.75C12.6506 12.75 12.5552 12.7895 12.4849 12.8598C12.4145 12.9302 12.375 13.0255 12.375 13.125V21.75H4.12503V11.066L12 5.33869L19.875 11.066V21.75H18.375ZM21.75 21.75H20.625V18.75C20.8239 18.7502 21.0145 18.8293 21.1551 18.9699C21.2957 19.1105 21.3748 19.3012 21.375 19.5C21.3739 19.5869 21.3575 19.6729 21.3264 19.7541C21.3052 19.8126 21.2988 19.8755 21.3079 19.9371C21.3171 19.9987 21.3414 20.0571 21.3787 20.1069C21.416 20.1568 21.4652 20.1965 21.5217 20.2226C21.5782 20.2487 21.6404 20.2603 21.7025 20.2564C21.722 20.2552 21.7412 20.2529 21.7604 20.2502H21.7613C21.9602 20.2517 22.1504 20.3321 22.29 20.4738C22.4296 20.6155 22.5071 20.8069 22.5057 21.0058C22.5042 21.2047 22.4237 21.3949 22.282 21.5345C22.1403 21.6741 21.9489 21.7517 21.75 21.7502V21.75Z"/>
</mask>
<path d="M22.1242 19.5472C22.1247 19.5314 22.125 19.5156 22.125 19.5C22.1246 19.1023 21.9664 18.721 21.6852 18.4398C21.404 18.1586 21.0227 18.0004 20.625 18V11.0625L21.975 10.05C22.0219 10.0148 22.0599 9.96917 22.086 9.91666C22.112 9.86416 22.1254 9.80628 22.125 9.74767C22.1247 9.68906 22.1106 9.63136 22.0839 9.57918C22.0572 9.52701 22.0186 9.48182 21.9713 9.44723L18.75 7.09322V3C18.8495 3 18.9449 2.96049 19.0152 2.89016C19.0855 2.81984 19.125 2.72446 19.125 2.625V1.125C19.125 1.02554 19.0855 0.930161 19.0152 0.859835C18.9449 0.789509 18.8495 0.75 18.75 0.75H15C14.9006 0.75 14.8052 0.789509 14.7349 0.859835C14.6645 0.930161 14.625 1.02554 14.625 1.125V2.625C14.625 2.72446 14.6645 2.81984 14.7349 2.89016C14.8052 2.96049 14.9006 3 15 3V4.35286L12.2213 2.32223C12.1571 2.2753 12.0796 2.25001 12 2.25001C11.9205 2.25001 11.843 2.2753 11.7788 2.32223L2.02878 9.44723C1.98146 9.48182 1.9429 9.52701 1.9162 9.57918C1.88951 9.63136 1.87541 9.68906 1.87504 9.74767C1.87468 9.80628 1.88806 9.86416 1.9141 9.91666C1.94015 9.96917 1.97814 10.0148 2.02503 10.05L3.37503 11.0625V18C2.97734 18.0004 2.59607 18.1586 2.31486 18.4398C2.03366 18.721 1.87548 19.1023 1.87503 19.5C1.87503 19.5156 1.87531 19.5314 1.87587 19.5472C1.5221 19.6382 1.21368 19.8551 1.00847 20.1573C0.803264 20.4595 0.715374 20.8262 0.761293 21.1886C0.807211 21.5509 0.983783 21.8841 1.25788 22.1256C1.53197 22.367 1.88475 22.5002 2.25003 22.5H21.75C22.1153 22.5002 22.4681 22.367 22.7422 22.1256C23.0163 21.8841 23.1928 21.5509 23.2388 21.1886C23.2847 20.8262 23.1968 20.4595 22.9916 20.1573C22.7864 19.8551 22.478 19.6382 22.1242 19.5472ZM15.375 1.5H18.375V2.25H15.375V1.5ZM15.75 4.875V3H18V6.54516L15.7145 4.875H15.75ZM12 3.08944L21.1198 9.75394L20.2466 10.4088L12.2206 4.57172C12.1565 4.52509 12.0793 4.49997 12 4.49997C11.9208 4.49997 11.8435 4.52509 11.7794 4.57172L3.75345 10.4088L2.88026 9.75394L12 3.08944ZM1.50003 21C1.50024 20.8031 1.57778 20.6141 1.71596 20.4739C1.85414 20.3336 2.0419 20.2532 2.23878 20.25H2.23967C2.25884 20.2527 2.27801 20.255 2.29756 20.2562C2.3597 20.2602 2.42185 20.2485 2.47838 20.2224C2.53491 20.1963 2.58405 20.1566 2.62137 20.1067C2.65869 20.0569 2.68301 19.9985 2.69213 19.9369C2.70126 19.8753 2.6949 19.8124 2.67364 19.7539C2.64261 19.6728 2.62615 19.5868 2.62503 19.5C2.62527 19.3012 2.70436 19.1105 2.84496 18.9699C2.98556 18.8293 3.17619 18.7502 3.37503 18.75V21.75H2.25003C2.05119 21.7498 1.86056 21.6707 1.71996 21.5301C1.57936 21.3895 1.50027 21.1988 1.50003 21ZM17.625 21.75H13.125V13.5H17.625V21.75ZM18.375 21.75V13.125C18.375 13.0255 18.3355 12.9302 18.2652 12.8598C18.1949 12.7895 18.0995 12.75 18 12.75H12.75C12.6506 12.75 12.5552 12.7895 12.4849 12.8598C12.4145 12.9302 12.375 13.0255 12.375 13.125V21.75H4.12503V11.066L12 5.33869L19.875 11.066V21.75H18.375ZM21.75 21.75H20.625V18.75C20.8239 18.7502 21.0145 18.8293 21.1551 18.9699C21.2957 19.1105 21.3748 19.3012 21.375 19.5C21.3739 19.5869 21.3575 19.6729 21.3264 19.7541C21.3052 19.8126 21.2988 19.8755 21.3079 19.9371C21.3171 19.9987 21.3414 20.0571 21.3787 20.1069C21.416 20.1568 21.4652 20.1965 21.5217 20.2226C21.5782 20.2487 21.6404 20.2603 21.7025 20.2564C21.722 20.2552 21.7412 20.2529 21.7604 20.2502H21.7613C21.9602 20.2517 22.1504 20.3321 22.29 20.4738C22.4296 20.6155 22.5071 20.8069 22.5057 21.0058C22.5042 21.2047 22.4237 21.3949 22.282 21.5345C22.1403 21.6741 21.9489 21.7517 21.75 21.7502V21.75Z" fill="white"/>
<path d="M22.1242 19.5472C22.1247 19.5314 22.125 19.5156 22.125 19.5C22.1246 19.1023 21.9664 18.721 21.6852 18.4398C21.404 18.1586 21.0227 18.0004 20.625 18V11.0625L21.975 10.05C22.0219 10.0148 22.0599 9.96917 22.086 9.91666C22.112 9.86416 22.1254 9.80628 22.125 9.74767C22.1247 9.68906 22.1106 9.63136 22.0839 9.57918C22.0572 9.52701 22.0186 9.48182 21.9713 9.44723L18.75 7.09322V3C18.8495 3 18.9449 2.96049 19.0152 2.89016C19.0855 2.81984 19.125 2.72446 19.125 2.625V1.125C19.125 1.02554 19.0855 0.930161 19.0152 0.859835C18.9449 0.789509 18.8495 0.75 18.75 0.75H15C14.9006 0.75 14.8052 0.789509 14.7349 0.859835C14.6645 0.930161 14.625 1.02554 14.625 1.125V2.625C14.625 2.72446 14.6645 2.81984 14.7349 2.89016C14.8052 2.96049 14.9006 3 15 3V4.35286L12.2213 2.32223C12.1571 2.2753 12.0796 2.25001 12 2.25001C11.9205 2.25001 11.843 2.2753 11.7788 2.32223L2.02878 9.44723C1.98146 9.48182 1.9429 9.52701 1.9162 9.57918C1.88951 9.63136 1.87541 9.68906 1.87504 9.74767C1.87468 9.80628 1.88806 9.86416 1.9141 9.91666C1.94015 9.96917 1.97814 10.0148 2.02503 10.05L3.37503 11.0625V18C2.97734 18.0004 2.59607 18.1586 2.31486 18.4398C2.03366 18.721 1.87548 19.1023 1.87503 19.5C1.87503 19.5156 1.87531 19.5314 1.87587 19.5472C1.5221 19.6382 1.21368 19.8551 1.00847 20.1573C0.803264 20.4595 0.715374 20.8262 0.761293 21.1886C0.807211 21.5509 0.983783 21.8841 1.25788 22.1256C1.53197 22.367 1.88475 22.5002 2.25003 22.5H21.75C22.1153 22.5002 22.4681 22.367 22.7422 22.1256C23.0163 21.8841 23.1928 21.5509 23.2388 21.1886C23.2847 20.8262 23.1968 20.4595 22.9916 20.1573C22.7864 19.8551 22.478 19.6382 22.1242 19.5472ZM15.375 1.5H18.375V2.25H15.375V1.5ZM15.75 4.875V3H18V6.54516L15.7145 4.875H15.75ZM12 3.08944L21.1198 9.75394L20.2466 10.4088L12.2206 4.57172C12.1565 4.52509 12.0793 4.49997 12 4.49997C11.9208 4.49997 11.8435 4.52509 11.7794 4.57172L3.75345 10.4088L2.88026 9.75394L12 3.08944ZM1.50003 21C1.50024 20.8031 1.57778 20.6141 1.71596 20.4739C1.85414 20.3336 2.0419 20.2532 2.23878 20.25H2.23967C2.25884 20.2527 2.27801 20.255 2.29756 20.2562C2.3597 20.2602 2.42185 20.2485 2.47838 20.2224C2.53491 20.1963 2.58405 20.1566 2.62137 20.1067C2.65869 20.0569 2.68301 19.9985 2.69213 19.9369C2.70126 19.8753 2.6949 19.8124 2.67364 19.7539C2.64261 19.6728 2.62615 19.5868 2.62503 19.5C2.62527 19.3012 2.70436 19.1105 2.84496 18.9699C2.98556 18.8293 3.17619 18.7502 3.37503 18.75V21.75H2.25003C2.05119 21.7498 1.86056 21.6707 1.71996 21.5301C1.57936 21.3895 1.50027 21.1988 1.50003 21ZM17.625 21.75H13.125V13.5H17.625V21.75ZM18.375 21.75V13.125C18.375 13.0255 18.3355 12.9302 18.2652 12.8598C18.1949 12.7895 18.0995 12.75 18 12.75H12.75C12.6506 12.75 12.5552 12.7895 12.4849 12.8598C12.4145 12.9302 12.375 13.0255 12.375 13.125V21.75H4.12503V11.066L12 5.33869L19.875 11.066V21.75H18.375ZM21.75 21.75H20.625V18.75C20.8239 18.7502 21.0145 18.8293 21.1551 18.9699C21.2957 19.1105 21.3748 19.3012 21.375 19.5C21.3739 19.5869 21.3575 19.6729 21.3264 19.7541C21.3052 19.8126 21.2988 19.8755 21.3079 19.9371C21.3171 19.9987 21.3414 20.0571 21.3787 20.1069C21.416 20.1568 21.4652 20.1965 21.5217 20.2226C21.5782 20.2487 21.6404 20.2603 21.7025 20.2564C21.722 20.2552 21.7412 20.2529 21.7604 20.2502H21.7613C21.9602 20.2517 22.1504 20.3321 22.29 20.4738C22.4296 20.6155 22.5071 20.8069 22.5057 21.0058C22.5042 21.2047 22.4237 21.3949 22.282 21.5345C22.1403 21.6741 21.9489 21.7517 21.75 21.7502V21.75Z" stroke="white" stroke-width="0.2" mask="url(#path-1-outside-1_12_416)"/>
<path d="M10.5 12.7H6C5.88728 12.7 5.77918 12.7448 5.69948 12.8245C5.61978 12.9042 5.575 13.0123 5.575 13.125V18.375C5.575 18.4877 5.61978 18.5958 5.69948 18.6755C5.77918 18.7552 5.88728 18.8 6 18.8H10.5C10.6127 18.8 10.7208 18.7552 10.8005 18.6755C10.8802 18.5958 10.925 18.4877 10.925 18.375V13.125C10.925 13.0123 10.8802 12.9042 10.8005 12.8245C10.7208 12.7448 10.6127 12.7 10.5 12.7ZM10.075 15.325H8.675V13.55H10.075V15.325ZM7.825 13.55V15.325H6.425V13.55H7.825ZM6.425 16.175H7.825V17.95H6.425V16.175ZM8.675 17.95V16.175H10.075V17.95H8.675Z" fill="white" stroke="white" stroke-width="0.1"/>
<path d="M14.6427 17.4127C14.7325 17.1958 14.6295 16.9472 14.4127 16.8574C14.1958 16.7676 13.9472 16.8706 13.8574 17.0874C13.7676 17.3043 13.8705 17.5529 14.0874 17.6427C14.3042 17.7325 14.5529 17.6295 14.6427 17.4127Z" fill="white" stroke="white" stroke-width="0.1"/>
</g>
<defs>
<clipPath id="clip0_12_416">
<rect width="24" height="24" fill="white"/>
</clipPath>
</defs>
</svg>
