<svg width="24" height="24" viewBox="0 0 24 24" fill="none" xmlns="http://www.w3.org/2000/svg">
<g clip-path="url(#clip0_12_469)">
<g clip-path="url(#clip1_12_469)">
<path d="M14.2499 4.875H13.1249V3.75C13.1249 3.65054 13.0854 3.55516 13.0151 3.48484C12.9448 3.41451 12.8494 3.375 12.7499 3.375H11.2499C11.1505 3.375 11.0551 3.41451 10.9848 3.48484C10.9144 3.55516 10.8749 3.65054 10.8749 3.75V4.875H9.74994C9.65048 4.875 9.5551 4.91451 9.48477 4.98484C9.41445 5.05516 9.37494 5.15054 9.37494 5.25V6.75C9.37494 6.84946 9.41445 6.94484 9.48477 7.01517C9.5551 7.08549 9.65048 7.125 9.74994 7.125H10.8749V8.25C10.8749 8.34946 10.9144 8.44484 10.9848 8.51517C11.0551 8.58549 11.1505 8.625 11.2499 8.625H12.7499C12.8494 8.625 12.9448 8.58549 13.0151 8.51517C13.0854 8.44484 13.1249 8.34946 13.1249 8.25V7.125H14.2499C14.3494 7.125 14.4448 7.08549 14.5151 7.01517C14.5854 6.94484 14.6249 6.84946 14.6249 6.75V5.25C14.6249 5.15054 14.5854 5.05516 14.5151 4.98484C14.4448 4.91451 14.3494 4.875 14.2499 4.875ZM13.8749 6.375H12.7499C12.6505 6.375 12.5551 6.41451 12.4848 6.48483C12.4144 6.55516 12.3749 6.65054 12.3749 6.75V7.875H11.6249V6.75C11.6249 6.65054 11.5854 6.55516 11.5151 6.48483C11.4448 6.41451 11.3494 6.375 11.2499 6.375H10.1249V5.625H11.2499C11.3494 5.625 11.4448 5.58549 11.5151 5.51516C11.5854 5.44484 11.6249 5.34946 11.6249 5.25V4.125H12.3749V5.25C12.3749 5.34946 12.4144 5.44484 12.4848 5.51516C12.5551 5.58549 12.6505 5.625 12.7499 5.625H13.8749V6.375Z" fill="white"/>
<path d="M22.3987 6.88493C22.4063 6.81895 22.41 6.75259 22.4099 6.68618C22.4081 6.34244 22.2889 6.00965 22.072 5.74297C21.8551 5.47629 21.5536 5.29175 21.2174 5.21993C20.8372 5.14755 20.4437 5.22231 20.1165 5.42907C19.7892 5.63584 19.5528 5.95918 19.4549 6.33367L17.8049 11.0812C17.7805 11.0909 17.7567 11.1022 17.7337 11.1149L14.4187 13.0574C13.9114 13.3554 13.4907 13.7806 13.198 14.2909C12.9054 14.8012 12.7509 15.3791 12.7499 15.9674V19.4999C12.6505 19.4999 12.5551 19.5394 12.4848 19.6098C12.4144 19.6801 12.3749 19.7755 12.3749 19.8749V22.8749C12.3749 22.9744 12.4144 23.0698 12.4848 23.1401C12.5551 23.2104 12.6505 23.2499 12.7499 23.2499H17.9999C18.0994 23.2499 18.1948 23.2104 18.2651 23.1401C18.3354 23.0698 18.3749 22.9744 18.3749 22.8749V19.8749C18.3749 19.7755 18.3354 19.6801 18.2651 19.6098C18.1948 19.5394 18.0994 19.4999 17.9999 19.4999V18.6749C18.0006 18.5165 18.0344 18.36 18.0989 18.2154C18.1635 18.0708 18.2575 17.9412 18.3749 17.8349L20.9099 15.5812C21.1872 15.3386 21.3857 15.0186 21.4799 14.6624L23.1074 8.57618C23.1422 8.44908 23.1598 8.31793 23.1599 8.18617C23.1585 7.92154 23.0873 7.66195 22.9537 7.43353C22.8201 7.2051 22.6287 7.01589 22.3987 6.88493ZM20.1712 6.55492C20.2172 6.36099 20.3347 6.19154 20.5001 6.08033C20.6655 5.96913 20.8667 5.92435 21.0637 5.95493C21.2318 5.99013 21.3827 6.08195 21.4912 6.21504C21.5997 6.34814 21.6593 6.51445 21.6599 6.68618V6.69368C21.325 6.69989 21.0012 6.81535 20.7379 7.02248C20.4746 7.22962 20.2861 7.51709 20.2012 7.84117L19.1549 11.0699C18.9965 10.9948 18.8267 10.9466 18.6524 10.9274L20.1712 6.55492ZM17.6249 22.4999H13.1249V20.2499H17.6249V22.4999ZM22.3837 8.38118L20.7524 14.4712C20.696 14.6828 20.5786 14.8732 20.4149 15.0187L17.8762 17.2724C17.6797 17.4496 17.5225 17.6659 17.4147 17.9074C17.3068 18.149 17.2507 18.4104 17.2499 18.6749V19.4999H13.4999V15.9674C13.5018 15.5099 13.6223 15.0607 13.8498 14.6637C14.0772 14.2667 14.4037 13.9355 14.7974 13.7024L18.1087 11.7637C18.1941 11.7139 18.2884 11.6815 18.3864 11.6684C18.4843 11.6552 18.5839 11.6615 18.6793 11.687C18.7748 11.7124 18.8643 11.7565 18.9427 11.8166C19.0211 11.8768 19.0869 11.9518 19.1362 12.0374C19.2336 12.2107 19.2605 12.4149 19.2112 12.6074C19.1851 12.7025 19.1406 12.7915 19.0801 12.8694C19.0196 12.9473 18.9444 13.0124 18.8587 13.0612L16.7099 14.3024C16.6283 14.3543 16.5699 14.4357 16.5469 14.5297C16.5239 14.6236 16.5381 14.7228 16.5865 14.8066C16.6349 14.8903 16.7137 14.9521 16.8066 14.979C16.8995 15.006 16.9992 14.996 17.0849 14.9512L19.2337 13.7099C19.4054 13.6125 19.556 13.4817 19.6764 13.3252C19.7968 13.1687 19.8847 12.9897 19.9349 12.7987C20.037 12.415 19.9831 12.0065 19.7849 11.6624L19.7624 11.6287L20.9212 8.05492C20.9672 7.86099 21.0847 7.69154 21.2501 7.58033C21.4155 7.46913 21.6167 7.42435 21.8137 7.45492C21.9818 7.49013 22.1327 7.58195 22.2412 7.71504C22.3497 7.84814 22.4093 8.01445 22.4099 8.18617C22.4112 8.25213 22.4023 8.3179 22.3837 8.38118Z" fill="white"/>
<path d="M11.25 19.5V15.9675C11.249 15.3792 11.0945 14.8013 10.8019 14.291C10.5092 13.7806 10.0885 13.3554 9.58122 13.0575L6.26622 11.1112C6.24372 11.1 6.21747 11.0925 6.19497 11.0812L4.55622 6.35998C4.46097 5.98003 4.22453 5.65064 3.89501 5.43886C3.56549 5.22707 3.16765 5.1488 2.78247 5.21998C2.44631 5.2918 2.1448 5.47635 1.92791 5.74302C1.71102 6.0097 1.59178 6.34249 1.58997 6.68623C1.58987 6.75264 1.59362 6.819 1.60122 6.88498C1.37125 7.01595 1.17983 7.20516 1.0462 7.43358C0.912566 7.66201 0.841437 7.92159 0.839966 8.18623C0.840694 8.3177 0.857059 8.44862 0.888716 8.57623L2.51997 14.6587C2.61318 15.0164 2.81178 15.3378 3.08997 15.5812L5.62122 17.835C5.73984 17.9405 5.83488 18.0699 5.90014 18.2146C5.9654 18.3593 5.99942 18.5162 5.99997 18.675V19.5C5.90051 19.5 5.80513 19.5395 5.7348 19.6098C5.66447 19.6801 5.62497 19.7755 5.62497 19.875V22.875C5.62497 22.9744 5.66447 23.0698 5.7348 23.1401C5.80513 23.2105 5.90051 23.25 5.99997 23.25H11.25C11.3494 23.25 11.4448 23.2105 11.5151 23.1401C11.5855 23.0698 11.625 22.9744 11.625 22.875V19.875C11.625 19.7755 11.5855 19.6801 11.5151 19.6098C11.4448 19.5395 11.3494 19.5 11.25 19.5ZM2.33997 6.68623C2.34043 6.51502 2.39945 6.34912 2.50724 6.2161C2.61502 6.08308 2.76507 5.99093 2.93247 5.95498C3.13484 5.9256 3.34083 5.97383 3.50914 6.08997C3.67745 6.20612 3.79562 6.3816 3.83997 6.58123L5.34747 10.9275C5.1732 10.9467 5.00337 10.9948 4.84497 11.07L3.80622 7.85998C3.72168 7.53269 3.53286 7.24184 3.26831 7.03142C3.00376 6.821 2.67788 6.70246 2.33997 6.69373V6.68623ZM6.11997 17.2725L3.58497 15.0187C3.42036 14.8725 3.3029 14.6806 3.24747 14.4675L1.61247 8.38123C1.59694 8.31741 1.58939 8.25191 1.58997 8.18623C1.59043 8.01502 1.64945 7.84912 1.75724 7.7161C1.86502 7.58308 2.01507 7.49093 2.18247 7.45498C2.38341 7.42482 2.58833 7.47187 2.756 7.58666C2.92366 7.70146 3.04165 7.87548 3.08622 8.07373L4.23747 11.6287L4.21497 11.6625C4.01681 12.0065 3.96289 12.415 4.06497 12.7987C4.11517 12.9897 4.20308 13.1687 4.32351 13.3252C4.44394 13.4817 4.59446 13.6125 4.76622 13.71L6.91497 14.9512C7.00067 14.9961 7.10038 15.006 7.19327 14.9791C7.28616 14.9521 7.36505 14.8904 7.41345 14.8066C7.46185 14.7229 7.47603 14.6237 7.45302 14.5297C7.43001 14.4358 7.37159 14.3544 7.28997 14.3025L5.14122 13.0612C5.05552 13.0125 4.98028 12.9473 4.91979 12.8694C4.8593 12.7916 4.81476 12.7026 4.78872 12.6075C4.73945 12.4149 4.76631 12.2108 4.86372 12.0375C4.91271 11.952 4.97806 11.8771 5.05603 11.8169C5.13399 11.7567 5.22305 11.7125 5.31812 11.6867C5.41318 11.6609 5.51239 11.6541 5.61008 11.6667C5.70777 11.6793 5.80203 11.711 5.88747 11.76L9.20247 13.7025C9.5962 13.9355 9.92273 14.2667 10.1502 14.6637C10.3776 15.0607 10.4981 15.51 10.5 15.9675V19.5H6.74997V18.675C6.74933 18.4101 6.6929 18.1483 6.58435 17.9066C6.4758 17.665 6.31757 17.4489 6.11997 17.2725ZM10.875 22.5H6.37497V20.25H10.875V22.5Z" fill="white"/>
<path d="M17.305 1.92447C16.9569 1.57573 16.5434 1.29907 16.0883 1.11032C15.6331 0.921567 15.1452 0.824428 14.6524 0.824463C14.1596 0.824498 13.6717 0.921706 13.2166 1.11052C12.7614 1.29934 12.348 1.57606 11.9999 1.92485C11.6519 1.57605 11.2385 1.29933 10.7833 1.11052C10.3282 0.921713 9.84029 0.824527 9.34755 0.824527C8.85481 0.824527 8.3669 0.921713 7.91177 1.11052C7.45664 1.29933 7.04322 1.57605 6.69517 1.92485C5.9933 2.62823 5.59912 3.58131 5.59912 4.57497C5.59912 5.56863 5.9933 6.52172 6.69517 7.2251L11.7352 12.2651C11.8055 12.3354 11.9009 12.3749 12.0003 12.3749C12.0997 12.3749 12.1951 12.3354 12.2654 12.2651L17.3054 7.2251C18.0073 6.5216 18.4014 5.56843 18.4013 4.57471C18.4012 3.58098 18.007 2.62787 17.305 1.92447ZM11.9999 11.4697L7.22505 6.69485C6.80585 6.27507 6.52051 5.74044 6.40511 5.15853C6.28972 4.57662 6.34944 3.97356 6.57673 3.42558C6.80402 2.8776 7.18867 2.40932 7.68206 2.07992C8.17545 1.75052 8.75543 1.5748 9.34867 1.57497C9.74275 1.57362 10.1332 1.65074 10.4971 1.80185C10.8611 1.95296 11.1913 2.17503 11.4685 2.4551L11.7348 2.72135C11.8051 2.79165 11.9005 2.83114 11.9999 2.83114C12.0994 2.83114 12.1947 2.79165 12.265 2.72135L12.532 2.45435C12.8104 2.17544 13.1411 1.95417 13.5051 1.8032C13.8691 1.65223 14.2593 1.57452 14.6534 1.57452C15.0475 1.57452 15.4377 1.65223 15.8017 1.8032C16.1657 1.95417 16.4964 2.17544 16.7748 2.45435C17.3365 3.01684 17.652 3.77928 17.652 4.57422C17.652 5.36916 17.3365 6.13161 16.7748 6.6941L11.9999 11.4697Z" fill="white"/>
</g>
</g>
<defs>
<clipPath id="clip0_12_469">
<rect width="24" height="24" fill="white"/>
</clipPath>
<clipPath id="clip1_12_469">
<rect width="24" height="24" fill="white"/>
</clipPath>
</defs>
</svg>
