<svg width="24" height="24" viewBox="0 0 24 24" fill="none" xmlns="http://www.w3.org/2000/svg">
<g clip-path="url(#clip0_2_302)">
<path d="M16.0062 23.9999C15.7501 24.0008 15.4971 23.9442 15.2657 23.8345C15.0343 23.7247 14.8305 23.5645 14.6692 23.3657L6.38994 13.0809C6.13783 12.7742 6 12.3895 6 11.9924C6 11.5954 6.13783 11.2107 6.38994 10.904L14.9606 0.619231C15.2515 0.269179 15.6696 0.0490432 16.1229 0.00725332C16.5761 -0.0345366 17.0274 0.105442 17.3775 0.396395C17.7275 0.687348 17.9477 1.10544 17.9895 1.5587C18.0312 2.01196 17.8913 2.46326 17.6003 2.81331L9.93818 12.001L17.3432 21.1887C17.5528 21.4403 17.686 21.7467 17.7269 22.0716C17.7678 22.3965 17.7148 22.7264 17.5742 23.0221C17.4335 23.3178 17.2111 23.5671 16.9332 23.7404C16.6553 23.9137 16.3336 24.0037 16.0062 23.9999Z" fill="white"/>
</g>
<defs>
<clipPath id="clip0_2_302">
<rect width="24" height="24" fill="white"/>
</clipPath>
</defs>
</svg>
