<svg width="24" height="24" viewBox="0 0 24 24" fill="none" xmlns="http://www.w3.org/2000/svg">
<g clip-path="url(#clip0_12_299)">
<g clip-path="url(#clip1_12_299)">
<path d="M10.9496 15.6399L10.9104 15.6026L10.8763 15.6447L10.4932 16.1181L10.4639 16.1544L10.4981 16.1862C10.8366 16.5006 11.2641 16.7019 11.7213 16.7629V17.0749V17.1249H11.7713H12.2552H12.3052V17.0749V16.7808C12.6779 16.747 12.9767 16.6209 13.1852 16.4246C13.4027 16.2197 13.518 15.9415 13.518 15.6229C13.518 15.2834 13.3901 15.044 13.1655 14.8701C12.9522 14.705 12.6542 14.6009 12.3052 14.5194V13.6241C12.5545 13.6946 12.7844 13.8215 12.9772 13.9954L13.0181 14.0323L13.0509 13.988L13.4124 13.4986L13.4394 13.462L13.4055 13.4316C13.0979 13.1564 12.714 12.9818 12.3052 12.9304V12.6447V12.5947H12.2552H11.7713H11.7213V12.6447V12.9253C11.0713 13.0216 10.6257 13.473 10.6257 14.0646C10.6257 14.3924 10.7421 14.6223 10.9464 14.7905C11.1398 14.9497 11.409 15.0511 11.7213 15.1344V16.0694C11.4322 15.9939 11.1666 15.8463 10.9496 15.6399ZM12.3052 16.1083V15.2864C12.4591 15.3355 12.5676 15.3841 12.6394 15.4421C12.717 15.5048 12.7531 15.5793 12.7531 15.6874C12.7531 15.7903 12.7125 15.8861 12.6309 15.9619C12.5578 16.0297 12.4499 16.083 12.3052 16.1083ZM11.4854 14.2246C11.4258 14.1678 11.3963 14.1006 11.3959 14.0082C11.4042 13.9071 11.4463 13.8117 11.5154 13.7374C11.5715 13.677 11.6428 13.6334 11.7213 13.6108V14.3596C11.6147 14.3177 11.5377 14.2744 11.4854 14.2246Z" fill="white" stroke="white" stroke-width="0.1"/>
<path d="M12 18.35H12.0001C12.6905 18.35 13.3655 18.1453 13.9396 17.7617C14.5137 17.3781 14.9611 16.8329 15.2254 16.195C15.4896 15.5571 15.5587 14.8552 15.424 14.178C15.2893 13.5009 14.9568 12.8788 14.4685 12.3906C13.9803 11.9024 13.3582 11.57 12.681 11.4354C12.0038 11.3007 11.3019 11.3699 10.664 11.6342C10.0262 11.8985 9.48101 12.346 9.09749 12.9202C8.71398 13.4943 8.50934 14.1693 8.50945 14.8597L8.50945 14.8598C8.51071 15.7851 8.87888 16.6722 9.53322 17.3265C10.1876 17.9807 11.0747 18.3488 12 18.35ZM12.0001 12.125C12.5409 12.1249 13.0696 12.2853 13.5193 12.5857C13.9691 12.8862 14.3196 13.3132 14.5266 13.8129C14.7336 14.3125 14.7878 14.8624 14.6823 15.3928C14.5768 15.9233 14.3164 16.4106 13.934 16.793C13.5516 17.1755 13.0644 17.436 12.5339 17.5415C12.0035 17.6471 11.4536 17.5929 10.954 17.386C10.4543 17.1791 10.0272 16.8286 9.72666 16.3789C9.42615 15.9292 9.26573 15.4006 9.2657 14.8597C9.26654 14.1347 9.55489 13.4397 10.0675 12.927C10.5801 12.4143 11.2751 12.1259 12.0001 12.125L12.0001 12.075L12.0001 12.125Z" fill="white" stroke="white" stroke-width="0.1"/>
<mask id="path-3-outside-1_12_299" maskUnits="userSpaceOnUse" x="-0.145508" y="-0.14563" width="24" height="24" fill="black">
<rect fill="white" x="-0.145508" y="-0.14563" width="24" height="24"/>
<path d="M22.8175 6.80398C22.8606 6.804 22.9033 6.79553 22.9431 6.77905C22.9829 6.76257 23.0191 6.7384 23.0496 6.70793C23.08 6.67745 23.1042 6.64127 23.1207 6.60145C23.1372 6.56163 23.1456 6.51895 23.1456 6.47585V5.04504C23.1456 4.97738 23.1247 4.91138 23.0857 4.85607C23.0467 4.80076 22.9916 4.75884 22.9279 4.73604L12.1103 0.873355C12.039 0.848042 11.9611 0.848042 11.8898 0.873355L1.07237 4.73604C1.00863 4.75881 0.953486 4.80072 0.914485 4.85603C0.875483 4.91135 0.854529 4.97736 0.854492 5.04504V6.47585C0.854492 6.56288 0.889062 6.64634 0.950598 6.70787C1.01213 6.76941 1.09559 6.80398 1.18262 6.80398H1.71268V7.65692H1.18262C1.09559 7.65692 1.01213 7.69149 0.950598 7.75302C0.889062 7.81456 0.854492 7.89802 0.854492 7.98504V9.52854C0.854492 9.61557 0.889062 9.69903 0.950598 9.76056C1.01213 9.8221 1.09559 9.85667 1.18262 9.85667H2.38974V11.1294C2.38974 11.2164 2.42431 11.2999 2.48585 11.3614C2.54738 11.423 2.63084 11.4575 2.71787 11.4575H3.00943V18.2625H2.7188C2.6318 18.2625 2.54836 18.2971 2.48684 18.3586C2.42532 18.4202 2.39073 18.5036 2.39068 18.5906V19.8634H1.18262C1.09559 19.8634 1.01213 19.8979 0.950598 19.9595C0.889062 20.021 0.854492 20.1045 0.854492 20.1915V22.818C0.854492 22.905 0.889062 22.9885 0.950598 23.05C1.01213 23.1115 1.09559 23.1461 1.18262 23.1461H22.8175C22.8606 23.1461 22.9033 23.1377 22.9431 23.1212C22.9829 23.1047 23.0191 23.0805 23.0496 23.0501C23.08 23.0196 23.1042 22.9834 23.1207 22.9436C23.1372 22.9038 23.1456 22.8611 23.1456 22.818V20.1909C23.1456 20.1478 23.1372 20.1051 23.1207 20.0653C23.1042 20.0255 23.08 19.9893 23.0496 19.9588C23.0191 19.9284 22.9829 19.9042 22.9431 19.8877C22.9033 19.8712 22.8606 19.8628 22.8175 19.8628H21.6104V18.59C21.6104 18.503 21.5758 18.4196 21.5143 18.358C21.4527 18.2965 21.3693 18.2619 21.2822 18.2619H20.9907V11.4575H21.2822C21.3253 11.4576 21.368 11.4491 21.4078 11.4326C21.4477 11.4161 21.4838 11.392 21.5143 11.3615C21.5448 11.331 21.569 11.2948 21.5854 11.255C21.6019 11.2152 21.6104 11.1725 21.6104 11.1294V9.85667H22.8175C22.8606 9.85669 22.9033 9.84822 22.9431 9.83174C22.9829 9.81526 23.0191 9.79109 23.0496 9.76062C23.08 9.73014 23.1042 9.69396 23.1207 9.65414C23.1372 9.61432 23.1456 9.57164 23.1456 9.52854V7.98504C23.1456 7.94195 23.1372 7.89927 23.1207 7.85944C23.1042 7.81962 23.08 7.78344 23.0496 7.75297C23.0191 7.72249 22.9829 7.69832 22.9431 7.68184C22.9033 7.66536 22.8606 7.65689 22.8175 7.65692H22.2874V6.80398H22.8175ZM1.51074 5.27642L12.0001 1.53092L22.4894 5.27642V6.14773H1.51074V5.27642ZM6.32949 9.85667V10.8013H3.04599V9.85667H6.32949ZM17.0151 9.85667V11.1294C17.0151 11.1725 17.0236 11.2152 17.04 11.255C17.0565 11.2948 17.0807 11.331 17.1112 11.3615C17.1416 11.392 17.1778 11.4161 17.2176 11.4326C17.2575 11.4491 17.3001 11.4576 17.3432 11.4575H17.6344V18.2625H17.3438C17.2568 18.2625 17.1733 18.297 17.1118 18.3586C17.0503 18.4201 17.0157 18.5036 17.0157 18.5906V19.8634H6.98537V18.59C6.98532 18.503 6.95073 18.4196 6.88921 18.3581C6.82768 18.2966 6.74425 18.262 6.65724 18.2619H6.36568V11.4575H6.65724C6.74427 11.4575 6.82773 11.423 6.88926 11.3614C6.9508 11.2999 6.98537 11.2164 6.98537 11.1294V9.85667H17.0151ZM3.66512 11.4575H5.70887V18.2625H3.66568L3.66512 11.4575ZM3.04637 18.9182H6.32949V19.8628H3.04599L3.04637 18.9182ZM22.4901 22.4893H1.51074V20.519H22.4894L22.4901 22.4893ZM17.6714 19.8628V18.9187H20.9545V19.8634L17.6714 19.8628ZM20.3339 18.2619H18.2907V11.4575H20.3344L20.3339 18.2619ZM20.9526 10.8013H17.671V9.85667H20.9541L20.9526 10.8013ZM22.4879 9.20042H1.51074V8.31317H22.4894L22.4879 9.20042ZM21.6297 7.65692H2.36893V6.80398H21.6312L21.6297 7.65692Z"/>
</mask>
<path d="M22.8175 6.80398C22.8606 6.804 22.9033 6.79553 22.9431 6.77905C22.9829 6.76257 23.0191 6.7384 23.0496 6.70793C23.08 6.67745 23.1042 6.64127 23.1207 6.60145C23.1372 6.56163 23.1456 6.51895 23.1456 6.47585V5.04504C23.1456 4.97738 23.1247 4.91138 23.0857 4.85607C23.0467 4.80076 22.9916 4.75884 22.9279 4.73604L12.1103 0.873355C12.039 0.848042 11.9611 0.848042 11.8898 0.873355L1.07237 4.73604C1.00863 4.75881 0.953486 4.80072 0.914485 4.85603C0.875483 4.91135 0.854529 4.97736 0.854492 5.04504V6.47585C0.854492 6.56288 0.889062 6.64634 0.950598 6.70787C1.01213 6.76941 1.09559 6.80398 1.18262 6.80398H1.71268V7.65692H1.18262C1.09559 7.65692 1.01213 7.69149 0.950598 7.75302C0.889062 7.81456 0.854492 7.89802 0.854492 7.98504V9.52854C0.854492 9.61557 0.889062 9.69903 0.950598 9.76056C1.01213 9.8221 1.09559 9.85667 1.18262 9.85667H2.38974V11.1294C2.38974 11.2164 2.42431 11.2999 2.48585 11.3614C2.54738 11.423 2.63084 11.4575 2.71787 11.4575H3.00943V18.2625H2.7188C2.6318 18.2625 2.54836 18.2971 2.48684 18.3586C2.42532 18.4202 2.39073 18.5036 2.39068 18.5906V19.8634H1.18262C1.09559 19.8634 1.01213 19.8979 0.950598 19.9595C0.889062 20.021 0.854492 20.1045 0.854492 20.1915V22.818C0.854492 22.905 0.889062 22.9885 0.950598 23.05C1.01213 23.1115 1.09559 23.1461 1.18262 23.1461H22.8175C22.8606 23.1461 22.9033 23.1377 22.9431 23.1212C22.9829 23.1047 23.0191 23.0805 23.0496 23.0501C23.08 23.0196 23.1042 22.9834 23.1207 22.9436C23.1372 22.9038 23.1456 22.8611 23.1456 22.818V20.1909C23.1456 20.1478 23.1372 20.1051 23.1207 20.0653C23.1042 20.0255 23.08 19.9893 23.0496 19.9588C23.0191 19.9284 22.9829 19.9042 22.9431 19.8877C22.9033 19.8712 22.8606 19.8628 22.8175 19.8628H21.6104V18.59C21.6104 18.503 21.5758 18.4196 21.5143 18.358C21.4527 18.2965 21.3693 18.2619 21.2822 18.2619H20.9907V11.4575H21.2822C21.3253 11.4576 21.368 11.4491 21.4078 11.4326C21.4477 11.4161 21.4838 11.392 21.5143 11.3615C21.5448 11.331 21.569 11.2948 21.5854 11.255C21.6019 11.2152 21.6104 11.1725 21.6104 11.1294V9.85667H22.8175C22.8606 9.85669 22.9033 9.84822 22.9431 9.83174C22.9829 9.81526 23.0191 9.79109 23.0496 9.76062C23.08 9.73014 23.1042 9.69396 23.1207 9.65414C23.1372 9.61432 23.1456 9.57164 23.1456 9.52854V7.98504C23.1456 7.94195 23.1372 7.89927 23.1207 7.85944C23.1042 7.81962 23.08 7.78344 23.0496 7.75297C23.0191 7.72249 22.9829 7.69832 22.9431 7.68184C22.9033 7.66536 22.8606 7.65689 22.8175 7.65692H22.2874V6.80398H22.8175ZM1.51074 5.27642L12.0001 1.53092L22.4894 5.27642V6.14773H1.51074V5.27642ZM6.32949 9.85667V10.8013H3.04599V9.85667H6.32949ZM17.0151 9.85667V11.1294C17.0151 11.1725 17.0236 11.2152 17.04 11.255C17.0565 11.2948 17.0807 11.331 17.1112 11.3615C17.1416 11.392 17.1778 11.4161 17.2176 11.4326C17.2575 11.4491 17.3001 11.4576 17.3432 11.4575H17.6344V18.2625H17.3438C17.2568 18.2625 17.1733 18.297 17.1118 18.3586C17.0503 18.4201 17.0157 18.5036 17.0157 18.5906V19.8634H6.98537V18.59C6.98532 18.503 6.95073 18.4196 6.88921 18.3581C6.82768 18.2966 6.74425 18.262 6.65724 18.2619H6.36568V11.4575H6.65724C6.74427 11.4575 6.82773 11.423 6.88926 11.3614C6.9508 11.2999 6.98537 11.2164 6.98537 11.1294V9.85667H17.0151ZM3.66512 11.4575H5.70887V18.2625H3.66568L3.66512 11.4575ZM3.04637 18.9182H6.32949V19.8628H3.04599L3.04637 18.9182ZM22.4901 22.4893H1.51074V20.519H22.4894L22.4901 22.4893ZM17.6714 19.8628V18.9187H20.9545V19.8634L17.6714 19.8628ZM20.3339 18.2619H18.2907V11.4575H20.3344L20.3339 18.2619ZM20.9526 10.8013H17.671V9.85667H20.9541L20.9526 10.8013ZM22.4879 9.20042H1.51074V8.31317H22.4894L22.4879 9.20042ZM21.6297 7.65692H2.36893V6.80398H21.6312L21.6297 7.65692Z" fill="white"/>
<path d="M22.8175 6.80398C22.8606 6.804 22.9033 6.79553 22.9431 6.77905C22.9829 6.76257 23.0191 6.7384 23.0496 6.70793C23.08 6.67745 23.1042 6.64127 23.1207 6.60145C23.1372 6.56163 23.1456 6.51895 23.1456 6.47585V5.04504C23.1456 4.97738 23.1247 4.91138 23.0857 4.85607C23.0467 4.80076 22.9916 4.75884 22.9279 4.73604L12.1103 0.873355C12.039 0.848042 11.9611 0.848042 11.8898 0.873355L1.07237 4.73604C1.00863 4.75881 0.953486 4.80072 0.914485 4.85603C0.875483 4.91135 0.854529 4.97736 0.854492 5.04504V6.47585C0.854492 6.56288 0.889062 6.64634 0.950598 6.70787C1.01213 6.76941 1.09559 6.80398 1.18262 6.80398H1.71268V7.65692H1.18262C1.09559 7.65692 1.01213 7.69149 0.950598 7.75302C0.889062 7.81456 0.854492 7.89802 0.854492 7.98504V9.52854C0.854492 9.61557 0.889062 9.69903 0.950598 9.76056C1.01213 9.8221 1.09559 9.85667 1.18262 9.85667H2.38974V11.1294C2.38974 11.2164 2.42431 11.2999 2.48585 11.3614C2.54738 11.423 2.63084 11.4575 2.71787 11.4575H3.00943V18.2625H2.7188C2.6318 18.2625 2.54836 18.2971 2.48684 18.3586C2.42532 18.4202 2.39073 18.5036 2.39068 18.5906V19.8634H1.18262C1.09559 19.8634 1.01213 19.8979 0.950598 19.9595C0.889062 20.021 0.854492 20.1045 0.854492 20.1915V22.818C0.854492 22.905 0.889062 22.9885 0.950598 23.05C1.01213 23.1115 1.09559 23.1461 1.18262 23.1461H22.8175C22.8606 23.1461 22.9033 23.1377 22.9431 23.1212C22.9829 23.1047 23.0191 23.0805 23.0496 23.0501C23.08 23.0196 23.1042 22.9834 23.1207 22.9436C23.1372 22.9038 23.1456 22.8611 23.1456 22.818V20.1909C23.1456 20.1478 23.1372 20.1051 23.1207 20.0653C23.1042 20.0255 23.08 19.9893 23.0496 19.9588C23.0191 19.9284 22.9829 19.9042 22.9431 19.8877C22.9033 19.8712 22.8606 19.8628 22.8175 19.8628H21.6104V18.59C21.6104 18.503 21.5758 18.4196 21.5143 18.358C21.4527 18.2965 21.3693 18.2619 21.2822 18.2619H20.9907V11.4575H21.2822C21.3253 11.4576 21.368 11.4491 21.4078 11.4326C21.4477 11.4161 21.4838 11.392 21.5143 11.3615C21.5448 11.331 21.569 11.2948 21.5854 11.255C21.6019 11.2152 21.6104 11.1725 21.6104 11.1294V9.85667H22.8175C22.8606 9.85669 22.9033 9.84822 22.9431 9.83174C22.9829 9.81526 23.0191 9.79109 23.0496 9.76062C23.08 9.73014 23.1042 9.69396 23.1207 9.65414C23.1372 9.61432 23.1456 9.57164 23.1456 9.52854V7.98504C23.1456 7.94195 23.1372 7.89927 23.1207 7.85944C23.1042 7.81962 23.08 7.78344 23.0496 7.75297C23.0191 7.72249 22.9829 7.69832 22.9431 7.68184C22.9033 7.66536 22.8606 7.65689 22.8175 7.65692H22.2874V6.80398H22.8175ZM1.51074 5.27642L12.0001 1.53092L22.4894 5.27642V6.14773H1.51074V5.27642ZM6.32949 9.85667V10.8013H3.04599V9.85667H6.32949ZM17.0151 9.85667V11.1294C17.0151 11.1725 17.0236 11.2152 17.04 11.255C17.0565 11.2948 17.0807 11.331 17.1112 11.3615C17.1416 11.392 17.1778 11.4161 17.2176 11.4326C17.2575 11.4491 17.3001 11.4576 17.3432 11.4575H17.6344V18.2625H17.3438C17.2568 18.2625 17.1733 18.297 17.1118 18.3586C17.0503 18.4201 17.0157 18.5036 17.0157 18.5906V19.8634H6.98537V18.59C6.98532 18.503 6.95073 18.4196 6.88921 18.3581C6.82768 18.2966 6.74425 18.262 6.65724 18.2619H6.36568V11.4575H6.65724C6.74427 11.4575 6.82773 11.423 6.88926 11.3614C6.9508 11.2999 6.98537 11.2164 6.98537 11.1294V9.85667H17.0151ZM3.66512 11.4575H5.70887V18.2625H3.66568L3.66512 11.4575ZM3.04637 18.9182H6.32949V19.8628H3.04599L3.04637 18.9182ZM22.4901 22.4893H1.51074V20.519H22.4894L22.4901 22.4893ZM17.6714 19.8628V18.9187H20.9545V19.8634L17.6714 19.8628ZM20.3339 18.2619H18.2907V11.4575H20.3344L20.3339 18.2619ZM20.9526 10.8013H17.671V9.85667H20.9541L20.9526 10.8013ZM22.4879 9.20042H1.51074V8.31317H22.4894L22.4879 9.20042ZM21.6297 7.65692H2.36893V6.80398H21.6312L21.6297 7.65692Z" stroke="white" stroke-width="0.2" mask="url(#path-3-outside-1_12_299)"/>
</g>
</g>
<defs>
<clipPath id="clip0_12_299">
<rect width="24" height="24" fill="white"/>
</clipPath>
<clipPath id="clip1_12_299">
<rect width="24" height="24" fill="white"/>
</clipPath>
</defs>
</svg>
