<svg width="24" height="24" viewBox="0 0 24 24" fill="none" xmlns="http://www.w3.org/2000/svg">
<g clip-path="url(#clip0_12_529)">
<g clip-path="url(#clip1_12_529)">
<path d="M16 2H8V2.8H16V2Z" fill="white"/>
<path d="M19.8 15C19.8 14.2281 19.1718 13.6 18.4 13.6H17.6V8H16.8V13.6H15.8C15.0281 13.6 14.4 14.2282 14.4 15C14.4 15.3919 14.5629 15.7456 14.8233 16C14.5629 16.2544 14.4 16.6081 14.4 17C14.4 17.2697 14.4802 17.5195 14.6129 17.7334C14.1344 17.9563 13.8 18.4384 13.8 19C13.8 19.2156 13.853 19.4175 13.9404 19.6H10.8C10.8 18.377 10.1871 17.2946 9.2523 16.6438C10.1562 16.2992 10.8 15.4235 10.8 14.4C10.8 14.1791 10.6211 14 10.4 14H7.19995V10H6.39995V14C5.73825 14 5.19995 14.5383 5.19995 15.2V24H5.99995V15.2C5.99995 14.9795 6.17925 14.8 6.39995 14.8H9.94915C9.7714 15.4893 9.14405 16 8.39995 16H7.19995C6.97885 16 6.79995 16.1791 6.79995 16.4C6.79995 16.6209 6.97885 16.8 7.19995 16.8C8.7437 16.8 9.99995 18.0561 9.99995 19.6V20C9.99995 20.2209 10.1789 20.4 10.4 20.4H12.7404C12.653 20.5826 12.6 20.7845 12.6 21C12.6 21.7719 13.2281 22.4 14 22.4V24H14.8V22.4H16.4H16.6C17.3719 22.4 18 21.7719 18 21C18 20.7822 17.9456 20.5784 17.8564 20.3943C18.6017 20.3639 19.2 19.7526 19.2 19C19.2 18.7304 19.1197 18.4805 18.987 18.2666C19.4655 18.0438 19.8 17.5616 19.8 17C19.8 16.6081 19.6371 16.2544 19.3767 16C19.6371 15.7456 19.8 15.3919 19.8 15ZM16.6 21.6H16.4H14.4H14C13.6691 21.6 13.4 21.3309 13.4 21C13.4 20.6692 13.6691 20.4 14 20.4H15.2H16.6C16.9308 20.4 17.2 20.6692 17.2 21C17.2 21.3309 16.9308 21.6 16.6 21.6ZM17.8 19.6H16.6H15.2C14.8691 19.6 14.6 19.3309 14.6 19C14.6 18.6692 14.8691 18.4 15.2 18.4H15.8H17.8C18.1308 18.4 18.4 18.6692 18.4 19C18.4 19.3309 18.1308 19.6 17.8 19.6ZM18.4 17.6H17.8H15.8C15.4691 17.6 15.2 17.3309 15.2 17C15.2 16.6692 15.4691 16.4 15.8 16.4H18.4C18.7308 16.4 19 16.6692 19 17C19 17.3309 18.7308 17.6 18.4 17.6ZM18.4 15.6H15.8C15.4691 15.6 15.2 15.3309 15.2 15C15.2 14.6692 15.4691 14.4 15.8 14.4H18.4C18.7308 14.4 19 14.6692 19 15C19 15.3309 18.7308 15.6 18.4 15.6Z" fill="white"/>
<path d="M5.99883 5.09138C5.99063 4.97653 5.93358 4.87068 5.84178 4.80113L5.42538 4.48548C5.32578 3.98123 4.88318 3.59998 4.35388 3.59998C3.75663 3.59998 3.26948 4.08553 3.26168 4.68533C2.94213 4.62948 2.63668 4.50683 2.36323 4.32263L2.22378 4.22848C2.10153 4.14588 1.94293 4.13688 1.81208 4.20678C1.68163 4.27613 1.59998 4.41208 1.59998 4.55993V4.88808C1.59998 5.37013 1.74528 5.82988 2.01483 6.21603L1.71563 6.51878C1.60198 6.63343 1.56873 6.80512 1.63088 6.95412C1.69293 7.10293 1.83863 7.19998 1.99998 7.19998H3.93828C4.71133 7.19998 5.35038 6.61073 5.43633 5.85448L5.88438 5.40118C5.96523 5.31933 6.00703 5.20643 5.99883 5.09138ZM4.76168 5.39883C4.68748 5.47363 4.64603 5.57483 4.64603 5.68008C4.64603 6.07698 4.32843 6.39998 3.93823 6.39998H2.92068C2.98398 6.25428 2.95663 6.07848 2.83828 5.95878C2.65158 5.76973 2.51798 5.53183 2.45038 5.27538C2.83203 5.43633 3.24218 5.51993 3.66173 5.51993C3.88283 5.51993 4.06173 5.34083 4.06173 5.11993V4.69998C4.06173 4.53453 4.19298 4.39998 4.35393 4.39998C4.51488 4.39998 4.64613 4.53453 4.64613 4.69998C4.64613 4.82518 4.70473 4.94313 4.80433 5.01873L4.99498 5.16308L4.76168 5.39883Z" fill="white"/>
<path d="M13.2 6.8V6H12C11.7789 6 11.6 6.1791 11.6 6.4V7.6H10.8V8.4H11.6V10H12.4V8.4H13.2V7.6H12.4V6.8H13.2Z" fill="white"/>
<path d="M14.4 4.40002H9.60002C8.93832 4.40002 8.40002 4.93832 8.40002 5.60002V10.4C8.40002 11.0617 8.93832 11.6 9.60002 11.6H14.4C15.0617 11.6 15.6 11.0617 15.6 10.4V5.60002C15.6 4.93832 15.0617 4.40002 14.4 4.40002ZM14.8 10.4C14.8 10.6205 14.6207 10.8 14.4 10.8H9.60002C9.37932 10.8 9.20002 10.6205 9.20002 10.4V5.60002C9.20002 5.37952 9.37932 5.20002 9.60002 5.20002H14.4C14.6207 5.20002 14.8 5.37952 14.8 5.60002V10.4Z" fill="white"/>
<path d="M6 2H1.2C0.5383 2 0 2.5383 0 3.2V8C0 8.6617 0.5383 9.2 1.2 9.2H6C6.6617 9.2 7.2 8.6617 7.2 8V3.2C7.2 2.5383 6.6617 2 6 2ZM6.4 8C6.4 8.2205 6.2207 8.4 6 8.4H1.2C0.9793 8.4 0.8 8.2205 0.8 8V3.2C0.8 2.9795 0.9793 2.8 1.2 2.8H6C6.2207 2.8 6.4 2.9795 6.4 3.2V8Z" fill="white"/>
<path d="M22.8 0H18C17.3383 0 16.8 0.5383 16.8 1.2V6C16.8 6.6617 17.3383 7.2 18 7.2H22.8C23.4617 7.2 24 6.6617 24 6V1.2C24 0.5383 23.4617 0 22.8 0ZM23.2 6C23.2 6.2205 23.0207 6.4 22.8 6.4H18C17.7793 6.4 17.6 6.2205 17.6 6V4H18.4404C18.6263 4.9117 19.4342 5.6 20.4 5.6C21.3657 5.6 22.1737 4.9117 22.3595 4H23.2V6ZM19.2 3.6C19.2 2.9383 19.7383 2.4 20.4 2.4C21.0617 2.4 21.6 2.9383 21.6 3.6C21.6 4.2617 21.0617 4.8 20.4 4.8C19.7383 4.8 19.2 4.2617 19.2 3.6ZM23.2 3.2H22.3595C22.1737 2.2883 21.3657 1.6 20.4 1.6C19.4342 1.6 18.6263 2.2883 18.4404 3.2H17.6V1.2C17.6 0.9795 17.7793 0.8 18 0.8H22.8C23.0207 0.8 23.2 0.9795 23.2 1.2V3.2Z" fill="white"/>
<path d="M12.4 16.4H11.6V17.2H12.4V16.4Z" fill="white"/>
</g>
</g>
<defs>
<clipPath id="clip0_12_529">
<rect width="24" height="24" fill="white"/>
</clipPath>
<clipPath id="clip1_12_529">
<rect width="24" height="24" fill="white"/>
</clipPath>
</defs>
</svg>
