<svg width="24" height="24" viewBox="0 0 24 24" fill="none" xmlns="http://www.w3.org/2000/svg">
<g clip-path="url(#clip0_44_632)">
<g clip-path="url(#clip1_44_632)">
<path d="M12 18.5807C11.3598 18.5807 10.8387 19.1017 10.8387 19.742C10.8387 20.3822 11.3598 20.9033 12 20.9033C12.6403 20.9033 13.1613 20.3822 13.1613 19.742C13.1613 19.1017 12.6403 18.5807 12 18.5807ZM12 20.1291C11.7864 20.1291 11.6129 19.9556 11.6129 19.742C11.6129 19.5283 11.7864 19.3549 12 19.3549C12.2137 19.3549 12.3871 19.5283 12.3871 19.742C12.3871 19.9556 12.2137 20.1291 12 20.1291Z" fill="white"/>
<path d="M12 15.0968H10.8387V15.871H12C12.8539 15.871 13.5484 15.1766 13.5484 14.3226H12.7742C12.7742 14.7496 12.427 15.0968 12 15.0968Z" fill="white"/>
<path d="M2.32251 13.9354H3.0967V15.4838H2.32251V13.9354Z" fill="white"/>
<path d="M24 15.871C24 14.8266 23.405 13.92 22.5372 13.4679C22.9548 13.1125 23.2258 12.59 23.2258 12C23.2258 11.2417 22.783 10.5902 22.1462 10.2732C21.3646 7.09237 19.1287 4.45936 16.111 3.16725C15.6275 1.34672 13.9703 0 12 0C10.0301 0 8.37328 1.34672 7.88902 3.16608C5.19366 4.31962 3.12155 6.53189 2.14762 9.29034H1.93547C1.2952 9.29034 0.774188 9.81136 0.774188 10.4516V12.3871C0.347203 12.3871 0 12.7343 0 13.1613V16.2581C0 16.6851 0.347203 17.0323 0.774188 17.0323H2.45883C3.15248 18.5849 4.21627 19.9452 5.5583 20.9977C5.46886 21.2416 5.41973 21.5009 5.41973 21.7673C5.41936 22.9986 6.4208 24 7.65211 24H16.3482C17.5792 24 18.5806 22.9986 18.5806 21.7672C18.5806 21.5009 18.5314 21.2411 18.442 20.9977C19.7841 19.9451 20.8482 18.5849 21.5419 17.0322H24V15.871ZM20.2003 12.3871H22.38C22.2197 12.8365 21.7939 13.1613 21.2899 13.1613C20.7859 13.1613 20.3605 12.8365 20.2003 12.3871ZM22.3804 11.6129H20.2006C20.3609 11.1635 20.7867 10.8387 21.2907 10.8387C21.7947 10.8387 22.2201 11.1635 22.3804 11.6129ZM16.2581 13.9432C16.2581 14.849 15.9461 15.7378 15.3802 16.4454L14.9106 17.0322H14.1852C14.976 16.3931 15.4839 15.4165 15.4839 14.3226V13.4005L16.2495 13.7833C16.2519 13.8368 16.2581 13.8894 16.2581 13.9432ZM7.75045 13.7834L8.51611 13.4005V14.3226C8.51611 15.4165 9.024 16.3932 9.81483 17.0323H9.08939L8.61984 16.4454C8.05392 15.7374 7.74192 14.8486 7.74192 13.9432C7.74192 13.8894 7.74811 13.8368 7.75045 13.7834ZM12 17.0323C10.5062 17.0323 9.29034 15.8164 9.29034 14.3226V13.1613H14.7097V14.3226C14.7097 15.8164 13.4938 17.0323 12 17.0323ZM8.51611 17.8065H15.4838V21.6774H8.51611V17.8065ZM15.1881 12.3871H8.81189L7.90181 12.8419C8.10544 12.1327 8.49792 11.4836 9.05302 10.9792L11.5866 8.676C11.8142 8.46966 12.1866 8.46966 12.4134 8.676L14.9473 10.9792C15.5024 11.4836 15.8949 12.1327 16.0985 12.8419L15.1881 12.3871ZM8.51611 4.25808C8.51611 3.85045 8.59003 3.46064 8.71931 3.0968H10.1891C10.1075 3.47578 10.0645 3.8648 10.0645 4.25808C10.0645 4.65136 10.1075 5.04042 10.1891 5.41936H8.71931C8.59008 5.05547 8.51611 4.66566 8.51611 4.25808ZM12 1.08502L12.3674 1.63622C12.5137 1.85531 12.6379 2.08523 12.7448 2.32256H11.2552C11.3621 2.08528 11.4863 1.85536 11.6327 1.63622L12 1.08502ZM13.0138 3.0968C13.1094 3.47381 13.1613 3.86325 13.1613 4.25808C13.1613 4.65291 13.1094 5.04234 13.0138 5.41936H10.9858C10.8906 5.04234 10.8387 4.65291 10.8387 4.25808C10.8387 3.86325 10.8906 3.47381 10.9862 3.0968H13.0138ZM12 7.43109L11.6326 6.87989C11.4867 6.6608 11.3621 6.43045 11.2552 6.19355H12.7448C12.6379 6.43083 12.5137 6.66075 12.3673 6.87989L12 7.43109ZM10.4172 6.19355C10.5639 6.58336 10.754 6.95766 10.9885 7.30955L11.2154 7.64944C10.3409 7.44698 9.59072 6.91744 9.10528 6.19355H10.4172ZM12.785 7.64944L13.0118 7.30955C13.2464 6.95766 13.4365 6.58336 13.5832 6.19355H14.8951C14.4093 6.91744 13.6595 7.44698 12.785 7.64944ZM15.4839 4.25808C15.4839 4.6657 15.41 5.05552 15.2806 5.41936H13.8108C13.8925 5.04037 13.9355 4.65136 13.9355 4.25808C13.9355 3.8648 13.8925 3.47573 13.8108 3.0968H15.2806C15.4099 3.46064 15.4839 3.85045 15.4839 4.25808ZM14.8947 2.32256H13.5828C13.4361 1.93275 13.246 1.55845 13.0115 1.20656L12.7846 0.866672C13.6595 1.06917 14.4093 1.59872 14.8947 2.32256ZM11.215 0.866719L10.9882 1.20661C10.754 1.5585 10.5639 1.9328 10.4172 2.32261H9.10528C9.59072 1.59872 10.3405 1.06917 11.215 0.866719ZM1.54838 10.4516C1.54838 10.238 1.72181 10.0645 1.93547 10.0645H3.48384C3.6975 10.0645 3.87094 10.238 3.87094 10.4516V12.3871H1.54838V10.4516ZM0.774188 13.1613H4.64517V16.2581L0.774188 16.2589V13.1613ZM3.30966 17.0323H4.64512C5.07211 17.0323 5.41931 16.6851 5.41931 16.2581V13.1613C5.41931 12.7343 5.07211 12.3871 4.64512 12.3871V10.4516C4.64512 9.81136 4.12411 9.29034 3.48384 9.29034H2.96822C3.84769 7.00645 5.55286 5.15269 7.7512 4.07963C7.74848 4.13925 7.74192 4.1977 7.74192 4.25808C7.74192 6.19008 9.03638 7.82325 10.8031 8.34197L8.532 10.4063C7.53792 11.3106 6.96773 12.5996 6.96773 13.9432C6.96773 15.024 7.33973 16.0843 8.01483 16.9293L8.16694 17.1194C7.91611 17.2475 7.74192 17.5058 7.74192 17.8065V18.7866L6.22219 20.0528C6.12309 20.1353 6.0352 20.2274 5.95317 20.3238C4.83947 19.4307 3.936 18.3081 3.30966 17.0323ZM6.19355 21.7672C6.19355 21.3337 6.38475 20.9249 6.71766 20.6469L7.74192 19.7941V22.4516C7.74192 22.7349 7.824 22.997 7.95712 23.2258H7.65169C6.84773 23.2258 6.19355 22.5716 6.19355 21.7672ZM9.29034 23.2258C8.86336 23.2258 8.51616 22.8786 8.51616 22.4516H15.4839C15.4839 22.8786 15.1367 23.2258 14.7097 23.2258H9.29034ZM16.3479 23.2258H16.0425C16.176 22.997 16.2581 22.735 16.2581 22.4516V19.7942L17.282 20.647C17.6152 20.9253 17.8065 21.3337 17.8065 21.7673C17.8065 22.5716 17.1523 23.2258 16.3479 23.2258ZM18.0468 20.3237C17.9648 20.2274 17.8765 20.1348 17.7774 20.0524L16.258 18.7866V17.8065C16.258 17.5057 16.0838 17.2475 15.8326 17.1194L15.9851 16.9289C16.6602 16.0843 17.0322 15.024 17.0322 13.9432C17.0322 12.5996 16.462 11.3106 15.468 10.4063L13.1965 8.34197C14.9632 7.82325 16.258 6.1905 16.258 4.25808C16.258 4.1977 16.2515 4.13888 16.2491 4.07925C18.6979 5.27616 20.5331 7.45088 21.293 10.0649C21.2918 10.0649 21.2911 10.0645 21.2903 10.0645C20.2231 10.0645 19.3548 10.9328 19.3548 12C19.3548 12.5899 19.6258 13.1125 20.0435 13.4679C19.1756 13.92 18.5806 14.8266 18.5806 15.871V17.0323H20.6903C20.0644 18.3081 19.1605 19.4307 18.0468 20.3237ZM23.2258 16.2581H19.3548V15.871C19.3548 14.8038 20.2231 13.9355 21.2903 13.9355C22.3575 13.9355 23.2258 14.8038 23.2258 15.871V16.2581H23.2258Z" fill="white"/>
</g>
</g>
<defs>
<clipPath id="clip0_44_632">
<rect width="24" height="24" fill="white"/>
</clipPath>
<clipPath id="clip1_44_632">
<rect width="24" height="24" fill="white"/>
</clipPath>
</defs>
</svg>
