<svg width="24" height="24" viewBox="0 0 24 24" fill="none" xmlns="http://www.w3.org/2000/svg">
<g clip-path="url(#clip0_49_1171)">
<g clip-path="url(#clip1_49_1171)">
<path d="M0.128479 16.579L2.08288 21.8685C2.48479 22.9712 3.69817 23.5273 4.78814 23.1302L7.43293 22.1675C7.79849 22.0349 7.98678 21.6309 7.85347 21.266L6.52962 17.629H7.76964C8.03627 17.629 8.27949 17.4785 8.39906 17.24L8.95563 16.1269L9.90182 19.9103C9.98223 20.2339 10.2509 20.4634 10.6123 20.4428C10.9455 20.4298 11.2231 20.1844 11.2781 19.8553L11.9914 15.5765L12.7046 19.8553C12.7596 20.1845 13.0372 20.4298 13.3704 20.4428C13.38 20.4435 13.3897 20.4435 13.3986 20.4435C13.7202 20.4435 14.0026 20.225 14.081 19.9103L15.0271 16.1269L15.5837 17.2401C15.7033 17.4785 15.9465 17.629 16.2131 17.629H17.4532L16.1293 21.266C15.996 21.6309 16.1843 22.0349 16.5498 22.1675L19.1946 23.1302C20.2829 23.5268 21.4974 22.9729 21.8999 21.8686L23.8715 16.579C24.2719 15.4805 23.7048 14.2727 22.6099 13.8737L22.2287 13.7518C22.4205 12.9485 22.5458 12.1297 22.5458 11.2963C22.5458 5.47627 17.8114 0.741882 11.9914 0.741882C6.17133 0.741882 1.43695 5.47627 1.43695 11.2963C1.43695 12.1297 1.56229 12.9485 1.75405 13.7518L1.39004 13.8737C0.295896 14.2725 -0.27212 15.4798 0.128479 16.579ZM2.8442 11.2963C2.8442 8.66994 3.9632 6.30533 5.74193 4.63543L7.27706 6.15977C7.51624 6.41308 7.91028 6.44122 8.19173 6.23013C10.4011 4.56957 13.5816 4.56957 15.791 6.23013C16.0617 6.44075 16.4771 6.41378 16.7056 6.15977L18.2408 4.63543C20.0195 6.30533 21.1385 8.66994 21.1385 11.2963C21.1385 11.9647 21.0417 12.6216 20.8992 13.2679L19.9188 12.911C19.5553 12.7798 19.1499 12.9667 19.0173 13.3316L17.9653 16.2217H16.648L15.4352 13.7961C15.3033 13.5329 15.0292 13.3817 14.7289 13.4113C14.4361 13.4435 14.1949 13.6545 14.1235 13.9403L13.5367 16.2869L12.6853 11.1808C12.629 10.8413 12.3356 10.5926 11.9913 10.5926C11.6471 10.5926 11.3536 10.8413 11.2973 11.1808L10.446 16.2869L9.85914 13.9403C9.7877 13.6545 9.54649 13.4435 9.25378 13.4113C8.95765 13.3838 8.67934 13.5329 8.54739 13.7961L7.33461 16.2217H6.01742L4.96541 13.3316C4.8328 12.966 4.42807 12.7791 4.06387 12.911L3.08348 13.2679C2.94102 12.6216 2.8442 11.9647 2.8442 11.2963Z" fill="white"/>
</g>
</g>
<defs>
<clipPath id="clip0_49_1171">
<rect width="24" height="24" fill="white"/>
</clipPath>
<clipPath id="clip1_49_1171">
<rect width="24" height="24" fill="white"/>
</clipPath>
</defs>
</svg>
