<svg width="24" height="24" viewBox="0 0 24 24" fill="none" xmlns="http://www.w3.org/2000/svg">
<g clip-path="url(#clip0_44_678)">
<g clip-path="url(#clip1_44_678)">
<path d="M21.4219 3.75H20.7188V2.10938C20.7188 0.946266 19.7725 0 18.6094 0C17.4463 0 16.5 0.946266 16.5 2.10938V2.68523C16.5 3.41386 16.0107 4.06256 15.3101 4.26272L14.625 4.45847V4.45312C14.625 4.06481 14.3102 3.75 13.9219 3.75H11.1094C10.7211 3.75 10.4062 4.06481 10.4062 4.45312V7.59375H2.10938C0.946266 7.59375 0 8.54002 0 9.70312V23.2969C0 23.5562 0.142734 23.7945 0.371344 23.9168C0.475313 23.9725 0.589312 24 0.703078 24C0.839484 24 0.975516 23.9603 1.09312 23.8819L3.72853 22.125H17.1094C18.2725 22.125 19.2188 21.1787 19.2188 20.0156V12.6562H21.4219C22.8435 12.6562 24 11.4997 24 10.0781V6.32812C24 4.90655 22.8435 3.75 21.4219 3.75ZM11.8125 5.15625H13.2188V11.25H11.8125V5.15625ZM17.8125 20.0156C17.8125 20.4033 17.4971 20.7188 17.1094 20.7188H3.51562C3.37683 20.7188 3.24113 20.7599 3.12563 20.8369L1.40625 21.9831V9.70312C1.40625 9.31542 1.72167 9 2.10938 9H10.4062V11.9531C10.4062 12.3414 10.7211 12.6562 11.1094 12.6562H13.9219C14.2831 12.6562 14.5804 12.3837 14.6201 12.0331C15.2465 12.4326 15.983 12.6562 16.749 12.6562H17.8125V20.0156ZM22.5938 10.0781C22.5938 10.7243 22.068 11.25 21.4219 11.25H16.749C15.894 11.25 15.0956 10.8187 14.625 10.1135V5.92102L15.6964 5.61492C16.9975 5.24316 17.9062 4.03842 17.9062 2.68523V2.10938C17.9062 1.72167 18.2217 1.40625 18.6094 1.40625C18.9971 1.40625 19.3125 1.72167 19.3125 2.10938V4.45312C19.3125 4.84144 19.6273 5.15625 20.0156 5.15625H21.4219C22.068 5.15625 22.5938 5.68195 22.5938 6.32812V10.0781Z" fill="white"/>
<path d="M3.51562 13.2188H8.20312C8.59144 13.2188 8.90625 12.9039 8.90625 12.5156C8.90625 12.1273 8.59144 11.8125 8.20312 11.8125H3.51562C3.12731 11.8125 2.8125 12.1273 2.8125 12.5156C2.8125 12.9039 3.12731 13.2188 3.51562 13.2188Z" fill="white"/>
<path d="M15.7031 14.625H3.51562C3.12731 14.625 2.8125 14.9398 2.8125 15.3281C2.8125 15.7164 3.12731 16.0312 3.51562 16.0312H15.7031C16.0914 16.0312 16.4062 15.7164 16.4062 15.3281C16.4062 14.9398 16.0914 14.625 15.7031 14.625Z" fill="white"/>
<path d="M15.7031 17.4375H3.51562C3.12731 17.4375 2.8125 17.7523 2.8125 18.1406C2.8125 18.5289 3.12731 18.8438 3.51562 18.8438H15.7031C16.0914 18.8438 16.4062 18.5289 16.4062 18.1406C16.4062 17.7523 16.0914 17.4375 15.7031 17.4375Z" fill="white"/>
</g>
</g>
<defs>
<clipPath id="clip0_44_678">
<rect width="24" height="24" fill="white"/>
</clipPath>
<clipPath id="clip1_44_678">
<rect width="24" height="24" fill="white"/>
</clipPath>
</defs>
</svg>
