<svg width="24" height="24" viewBox="0 0 24 24" fill="none" xmlns="http://www.w3.org/2000/svg">
<g clip-path="url(#clip0_12_309)">
<g clip-path="url(#clip1_12_309)">
<path d="M22.413 3.8875H1.587C0.684324 3.8875 -0.05 4.62182 -0.05 5.52445V18.4755C-0.05 19.3782 0.684322 20.1125 1.587 20.1125H22.413C23.3157 20.1125 24.05 19.3782 24.05 18.4755V5.52445C24.05 4.62182 23.3157 3.8875 22.413 3.8875ZM23.2 18.4755C23.2 18.9094 22.8469 19.2625 22.413 19.2625H1.587C1.15308 19.2625 0.8 18.9094 0.8 18.4755V5.52445C0.8 5.09058 1.15308 4.7375 1.587 4.7375H22.413C22.8469 4.7375 23.2 5.09058 23.2 5.52445V18.4755ZM10.9062 7.34453H2.44523C2.21053 7.34453 2.02023 7.53482 2.02023 7.76953V16.2305C2.02023 16.4652 2.21053 16.6555 2.44523 16.6555H10.9062C11.1409 16.6555 11.3312 16.4652 11.3312 16.2305V7.76953C11.3312 7.53482 11.1409 7.34453 10.9062 7.34453ZM8.58522 15.8055H4.76623V15.3319C4.76623 14.2791 5.62285 13.4225 6.6757 13.4225C7.72856 13.4225 8.58522 14.2791 8.58522 15.3319V15.8055ZM10.4812 15.8055H9.43522V15.3319C9.43522 13.8103 8.19732 12.5725 6.6757 12.5725C5.15409 12.5725 3.91623 13.8103 3.91623 15.3319V15.8055H2.87028V8.19453H10.4812V15.8055ZM6.67575 12.3398C7.60655 12.3398 8.36375 11.5826 8.36375 10.6518C8.36375 9.72098 7.60655 8.96383 6.67575 8.96383C5.74495 8.96383 4.98775 9.72103 4.98775 10.6518C4.98775 11.5826 5.7449 12.3398 6.67575 12.3398ZM6.67575 9.81378C7.13779 9.81378 7.51375 10.1897 7.51375 10.6517C7.51375 11.1138 7.13779 11.4897 6.67575 11.4897C6.21371 11.4897 5.83775 11.1138 5.83775 10.6517C5.83775 10.1897 6.21371 9.81378 6.67575 9.81378ZM14.1426 11.1191C14.3773 11.1191 14.5676 10.9288 14.5676 10.6941C14.5676 10.4594 14.3773 10.2691 14.1426 10.2691H12.7716C12.5369 10.2691 12.3466 10.4594 12.3466 10.6941C12.3466 10.9288 12.5369 11.1191 12.7716 11.1191H14.1426ZM21.5548 11.1191C21.7895 11.1191 21.9798 10.9288 21.9798 10.6941C21.9798 10.4594 21.7895 10.2691 21.5548 10.2691H15.5022C15.2675 10.2691 15.0772 10.4594 15.0772 10.6941C15.0772 10.9288 15.2675 11.1191 15.5022 11.1191H21.5548ZM14.1426 15.8505C14.3773 15.8505 14.5676 15.6602 14.5676 15.4255C14.5676 15.1908 14.3773 15.0005 14.1426 15.0005H12.7716C12.5369 15.0005 12.3466 15.1908 12.3466 15.4255C12.3466 15.6602 12.5369 15.8505 12.7716 15.8505H14.1426ZM21.5548 15.8505C21.7895 15.8505 21.9798 15.6602 21.9798 15.4255C21.9798 15.1908 21.7895 15.0005 21.5548 15.0005H15.5022C15.2675 15.0005 15.0772 15.1908 15.0772 15.4255C15.0772 15.6602 15.2675 15.8505 15.5022 15.8505H21.5548ZM21.5548 13.4847C21.7895 13.4847 21.9798 13.2945 21.9798 13.0597C21.9798 12.825 21.7895 12.6347 21.5548 12.6347H15.5022C15.2675 12.6347 15.0772 12.825 15.0772 13.0597C15.0772 13.2945 15.2675 13.4847 15.5022 13.4847H21.5548ZM14.1426 13.4847C14.3773 13.4847 14.5676 13.2945 14.5676 13.0597C14.5676 12.825 14.3773 12.6347 14.1426 12.6347H12.7716C12.5369 12.6347 12.3466 12.825 12.3466 13.0597C12.3466 13.2945 12.5369 13.4847 12.7716 13.4847H14.1426ZM21.5548 8.75328C21.7895 8.75328 21.9798 8.56299 21.9798 8.32828C21.9798 8.09357 21.7895 7.90328 21.5548 7.90328H15.5022C15.2675 7.90328 15.0772 8.09357 15.0772 8.32828C15.0772 8.56299 15.2675 8.75328 15.5022 8.75328H21.5548ZM14.1426 8.75328C14.3773 8.75328 14.5676 8.56299 14.5676 8.32828C14.5676 8.09357 14.3773 7.90328 14.1426 7.90328H12.7716C12.5369 7.90328 12.3466 8.09357 12.3466 8.32828C12.3466 8.56299 12.5369 8.75328 12.7716 8.75328H14.1426Z" fill="white" stroke="white" stroke-width="0.1"/>
</g>
</g>
<defs>
<clipPath id="clip0_12_309">
<rect width="24" height="24" fill="white"/>
</clipPath>
<clipPath id="clip1_12_309">
<rect width="24" height="24" fill="white"/>
</clipPath>
</defs>
</svg>
