<svg width="24" height="24" viewBox="0 0 24 24" fill="none" xmlns="http://www.w3.org/2000/svg">
<g clip-path="url(#clip0_12_382)">
<g clip-path="url(#clip1_12_382)">
<path d="M12.0993 12.6611L8.31822 15.5884V8.41163L13.9228 12.7507C14.4629 13.1688 15.1103 13.3779 15.7575 13.3779C16.4047 13.3779 17.0521 13.1688 17.5922 12.7507L23.1969 8.41162V15.5883L19.4158 12.6611L19.4158 12.6611C19.2186 12.5084 18.935 12.5445 18.7823 12.7417C18.6296 12.9389 18.6657 13.2225 18.8629 13.3752L18.8629 13.3752L23.1389 16.6857C23.0842 16.7605 22.996 16.809 22.8969 16.809H8.6182C8.51912 16.809 8.43088 16.7605 8.3762 16.6857L12.6522 13.3752L12.6522 13.3752C12.8493 13.2226 12.8855 12.9389 12.7328 12.7417C12.5801 12.5445 12.2965 12.5084 12.0993 12.6611L12.0993 12.6611ZM22.8969 6.28782H8.6182C7.95472 6.28782 7.41514 6.82745 7.41514 7.49088V16.509C7.41514 17.1725 7.95477 17.7121 8.6182 17.7121H22.8969C23.5604 17.7121 24.1 17.1724 24.1 16.509V7.49097C24.1 6.82745 23.5604 6.28782 22.8969 6.28782ZM8.6182 7.19094H22.8969C22.996 7.19094 23.0842 7.23942 23.1389 7.31425L17.0393 12.0365C16.2846 12.6208 15.2304 12.6208 14.4757 12.0365L8.37621 7.3143C8.4309 7.23946 8.51915 7.19094 8.6182 7.19094Z" fill="white" stroke="white" stroke-width="0.2"/>
<path d="M6.36371 12.6756H1.85461C1.60523 12.6756 1.40305 12.8778 1.40305 13.1272C1.40305 13.3766 1.60523 13.5788 1.85461 13.5788H6.36371C6.61309 13.5788 6.81527 13.3766 6.81527 13.1272C6.81527 12.8778 6.61309 12.6756 6.36371 12.6756Z" fill="white" stroke="white" stroke-width="0.2"/>
<path d="M6.36366 14.5544H0.351562C0.102178 14.5544 -0.1 14.7566 -0.1 15.006C-0.1 15.2554 0.102178 15.4575 0.351562 15.4575H6.36366C6.61304 15.4575 6.81522 15.2554 6.81522 15.006C6.81522 14.7566 6.61304 14.5544 6.36366 14.5544Z" fill="white" stroke="white" stroke-width="0.2"/>
<path d="M6.36371 10.797H3.35767C3.10828 10.797 2.9061 10.9992 2.9061 11.2485C2.9061 11.4979 3.10828 11.7001 3.35767 11.7001H6.36371C6.6131 11.7001 6.81528 11.4979 6.81528 11.2485C6.81528 10.9991 6.61309 10.797 6.36371 10.797Z" fill="white" stroke="white" stroke-width="0.2"/>
<path d="M6.36364 8.91807H4.8606C4.61121 8.91807 4.40903 9.12024 4.40903 9.36963C4.40903 9.61901 4.61121 9.82119 4.8606 9.82119H6.36364C6.61303 9.82119 6.8152 9.61901 6.8152 9.36963C6.8152 9.12024 6.61303 8.91807 6.36364 8.91807Z" fill="white" stroke="white" stroke-width="0.2"/>
</g>
</g>
<defs>
<clipPath id="clip0_12_382">
<rect width="24" height="24" fill="white"/>
</clipPath>
<clipPath id="clip1_12_382">
<rect width="24" height="24" fill="white"/>
</clipPath>
</defs>
</svg>
