<svg width="24" height="24" viewBox="0 0 24 24" fill="none" xmlns="http://www.w3.org/2000/svg">
<g clip-path="url(#clip0_7_1029)">
<g clip-path="url(#clip1_7_1029)">
<path d="M12 3.00121C13.78 3.00121 15.5201 3.52905 17.0001 4.51798C18.4802 5.50691 19.6337 6.91252 20.3149 8.55705C20.9961 10.2016 21.1743 12.0112 20.8271 13.757C20.4798 15.5028 19.6226 17.1065 18.3639 18.3652C17.1053 19.6238 15.5016 20.481 13.7558 20.8283C12.01 21.1755 10.2004 20.9973 8.55584 20.3161C6.91131 19.6349 5.5057 18.4814 4.51677 17.0013C3.52784 15.5213 3 13.7812 3 12.0012C3 11.6034 2.84196 11.2218 2.56066 10.9405C2.27935 10.6592 1.89782 10.5012 1.5 10.5012C1.10217 10.5012 0.720644 10.6592 0.439339 10.9405C0.158035 11.2218 8.38352e-09 11.6034 0 12.0012C0.000270514 14.6938 0.906075 17.308 2.57175 19.4235C4.23743 21.539 6.56617 23.0328 9.18351 23.6648C11.8008 24.2967 14.5547 24.0301 17.0021 22.9077C19.4496 21.7853 21.4485 19.8725 22.6773 17.4767C23.9062 15.0809 24.2936 12.3415 23.7773 9.69888C23.261 7.0563 21.8709 4.66415 19.8307 2.90711C17.7904 1.15008 15.2185 0.130256 12.5286 0.0116531C9.83864 -0.10695 7.18697 0.682556 5 2.25321V1.50121C5 1.10339 4.84196 0.721855 4.56066 0.440551C4.27935 0.159246 3.89782 0.00121137 3.5 0.00121137C3.10217 0.00121137 2.72064 0.159246 2.43934 0.440551C2.15803 0.721855 2 1.10339 2 1.50121V6.50121C2 7.32921 2.672 8.00121 3.5 8.00121H6.5C6.89782 8.00121 7.27935 7.84317 7.56066 7.56187C7.84196 7.28056 7.99999 6.89903 7.99999 6.50121C7.99999 6.10338 7.84196 5.72185 7.56066 5.44055C7.27935 5.15924 6.89782 5.00121 6.5 5.00121H6.342C7.94204 3.704 9.94017 2.99769 12 3.00121ZM13 7.50121C13 7.10338 12.842 6.72185 12.5607 6.44055C12.2793 6.15924 11.8978 6.00121 11.5 6.00121C11.1022 6.00121 10.7206 6.15924 10.4393 6.44055C10.158 6.72185 9.99999 7.10338 9.99999 7.50121V12.5012C9.99999 13.3292 10.672 14.0012 11.5 14.0012H14.5C14.8978 14.0012 15.2793 13.8432 15.5606 13.5619C15.842 13.2806 16 12.899 16 12.5012C16 12.1034 15.842 11.7218 15.5606 11.4405C15.2793 11.1592 14.8978 11.0012 14.5 11.0012H13V7.50121Z" fill="white"/>
</g>
</g>
<defs>
<clipPath id="clip0_7_1029">
<rect width="24" height="24" fill="white"/>
</clipPath>
<clipPath id="clip1_7_1029">
<rect width="24" height="24" fill="white"/>
</clipPath>
</defs>
</svg>
