<svg width="24" height="24" viewBox="0 0 24 24" fill="none" xmlns="http://www.w3.org/2000/svg">
<g clip-path="url(#clip0_47_752)">
<g clip-path="url(#clip1_47_752)">
<path d="M12 0.000610352C5.3832 0.000610352 0 5.38359 0 12C0 18.6165 5.3832 23.9994 12 23.9994C18.6168 23.9994 24 18.6165 24 12C24 5.38359 18.6168 0.000610352 12 0.000610352ZM12 21.8176C6.58625 21.8176 2.18182 17.4135 2.18182 12C2.18182 6.58657 6.58625 2.18243 12 2.18243C17.4137 2.18243 21.8182 6.58657 21.8182 12C21.8182 17.4136 17.4137 21.8176 12 21.8176Z" fill="white"/>
<path d="M12 9.45514C11.3976 9.45514 10.9091 9.94358 10.9091 10.546V17.8175C10.9091 18.42 11.3976 18.9084 12 18.9084C12.6025 18.9084 13.0909 18.42 13.0909 17.8175V10.546C13.0909 9.94365 12.6025 9.45514 12 9.45514Z" fill="white"/>
<path d="M12 5.09174C11.7128 5.09174 11.432 5.2081 11.2284 5.41101C11.0255 5.61392 10.9091 5.89537 10.9091 6.18264C10.9091 6.46992 11.0255 6.75064 11.2284 6.95428C11.4313 7.15719 11.7128 7.27355 12 7.27355C12.2873 7.27355 12.568 7.15719 12.7716 6.95428C12.9745 6.75064 13.0909 6.46992 13.0909 6.18264C13.0909 5.89537 12.9745 5.61392 12.7716 5.41101C12.568 5.20803 12.2873 5.09174 12 5.09174Z" fill="white"/>
</g>
</g>
<defs>
<clipPath id="clip0_47_752">
<rect width="24" height="24" fill="white"/>
</clipPath>
<clipPath id="clip1_47_752">
<rect width="24" height="24" fill="white"/>
</clipPath>
</defs>
</svg>
