<svg width="24" height="24" viewBox="0 0 24 24" fill="none" xmlns="http://www.w3.org/2000/svg">
<g clip-path="url(#clip0_3_305)">
<path d="M20.2694 2.60885C20.6841 2.21401 21.236 1.99573 21.8086 2.00006C22.3812 2.0044 22.9298 2.23101 23.3385 2.63207C23.7472 3.03314 23.9841 3.5773 23.9992 4.14973C24.0144 4.72215 23.8065 5.27807 23.4196 5.70017L11.6726 20.3913C11.4706 20.6089 11.2268 20.7835 10.9558 20.9047C10.6848 21.0259 10.3921 21.0912 10.0953 21.0967C9.79843 21.1022 9.50354 21.0477 9.22823 20.9367C8.95292 20.8256 8.70283 20.6601 8.49292 20.4502L0.702785 12.6601C0.485843 12.4579 0.311839 12.2141 0.191154 11.9433C0.0704689 11.6724 0.0055747 11.38 0.000343637 11.0836C-0.00488742 10.7871 0.049652 10.4926 0.160707 10.2176C0.271762 9.94269 0.437058 9.69293 0.646735 9.48325C0.856411 9.27358 1.10617 9.10828 1.38112 8.99722C1.65606 8.88617 1.95056 8.83163 2.24704 8.83686C2.54352 8.84209 2.83591 8.90699 3.10677 9.02767C3.37763 9.14836 3.6214 9.32236 3.82355 9.5393L9.98853 15.7013L20.2134 2.67362C20.2319 2.65096 20.2515 2.62933 20.2723 2.60885H20.2694Z" fill="white"/>
</g>
<defs>
<clipPath id="clip0_3_305">
<rect width="24" height="24" fill="white"/>
</clipPath>
</defs>
</svg>
