<svg width="24" height="24" viewBox="0 0 24 24" fill="none" xmlns="http://www.w3.org/2000/svg">
<g clip-path="url(#clip0_12_491)">
<g clip-path="url(#clip1_12_491)">
<path d="M21.7906 3.38904H2.20941C0.974859 3.38904 0 4.39169 0 5.59844V18.4016C0 19.6361 1.00266 20.6109 2.20941 20.6109H21.7906C23.0251 20.6109 24 19.6083 24 18.4015V5.59844C24 4.36385 22.9973 3.38904 21.7906 3.38904ZM22.5938 18.4015C22.5938 18.8448 22.2348 19.2047 21.7906 19.2047H2.20941C1.76616 19.2047 1.40625 18.8457 1.40625 18.4015V5.59844C1.40625 5.15519 1.76522 4.79529 2.20941 4.79529H21.7906C22.2338 4.79529 22.5938 5.15426 22.5938 5.59844V18.4015Z" fill="white"/>
<path d="M9.4097 13.7205C9.81827 13.263 10.0672 12.6602 10.0672 12C10.0672 10.5741 8.90716 9.41406 7.48127 9.41406C6.05538 9.41406 4.89536 10.5741 4.89536 12C4.89536 12.6602 5.14431 13.263 5.55283 13.7204C4.48206 14.3732 3.76562 15.5522 3.76562 16.8953C3.76562 17.2836 4.08044 17.5984 4.46875 17.5984H10.4937C10.882 17.5984 11.1969 17.2836 11.1969 16.8953C11.1969 15.5522 10.4804 14.3733 9.4097 13.7205ZM7.48127 10.8203C8.13175 10.8203 8.66097 11.3495 8.66097 12C8.66097 12.6505 8.13175 13.1797 7.48127 13.1797C6.83078 13.1797 6.30161 12.6505 6.30161 12C6.30161 11.3495 6.83078 10.8203 7.48127 10.8203ZM5.28128 16.1922C5.57941 15.2616 6.45292 14.586 7.48127 14.586C8.50961 14.586 9.38308 15.2615 9.68125 16.1922H5.28128Z" fill="white"/>
<path d="M19.5313 10.1671H14.2594C13.8711 10.1671 13.5563 10.4819 13.5563 10.8702C13.5563 11.2586 13.8711 11.5734 14.2594 11.5734H19.5313C19.9196 11.5734 20.2344 11.2586 20.2344 10.8702C20.2344 10.4819 19.9196 10.1671 19.5313 10.1671Z" fill="white"/>
<path d="M19.5313 6.40149H4.46875C4.08044 6.40149 3.76562 6.7163 3.76562 7.10461C3.76562 7.49293 4.08044 7.80774 4.46875 7.80774H19.5313C19.9196 7.80774 20.2344 7.49293 20.2344 7.10461C20.2344 6.7163 19.9196 6.40149 19.5313 6.40149Z" fill="white"/>
<path d="M19.5313 13.1797H14.2594C13.8711 13.1797 13.5563 13.4945 13.5563 13.8828C13.5563 14.2711 13.8711 14.5859 14.2594 14.5859H19.5313C19.9196 14.5859 20.2344 14.2711 20.2344 13.8828C20.2344 13.4945 19.9196 13.1797 19.5313 13.1797Z" fill="white"/>
<path d="M18.025 16.1921H14.2594C13.8711 16.1921 13.5563 16.507 13.5563 16.8953C13.5563 17.2836 13.8711 17.5984 14.2594 17.5984H18.025C18.4133 17.5984 18.7281 17.2836 18.7281 16.8953C18.7281 16.507 18.4133 16.1921 18.025 16.1921Z" fill="white"/>
</g>
</g>
<defs>
<clipPath id="clip0_12_491">
<rect width="24" height="24" fill="white"/>
</clipPath>
<clipPath id="clip1_12_491">
<rect width="24" height="24" fill="white"/>
</clipPath>
</defs>
</svg>
