<svg width="24" height="24" viewBox="0 0 24 24" fill="none" xmlns="http://www.w3.org/2000/svg">
<g clip-path="url(#clip0_44_653)">
<path d="M7.48938 17.8373C8.14783 17.227 8.5611 16.3556 8.5611 15.3892C8.5611 13.5479 7.06311 12.05 5.22198 12.05C3.38086 12.05 1.88287 13.5479 1.88287 15.3892C1.88287 16.3565 2.29669 17.2288 2.95642 17.8391C1.2085 18.6841 0 20.4751 0 22.5431V23.2969C0 23.6853 0.314758 24.0001 0.703125 24.0001H9.74066C10.129 24.0001 10.4438 23.6853 10.4438 23.2969V22.5438C10.4438 20.0342 8.79968 18.4697 7.48938 17.8373ZM5.22198 13.4563C6.28766 13.4563 7.15466 14.3233 7.15466 15.3892C7.15466 16.4548 6.28766 17.3218 5.22198 17.3218C4.15613 17.3218 3.28912 16.4548 3.28912 15.3892C3.28912 14.3233 4.15613 13.4563 5.22198 13.4563ZM9.03754 22.5938H1.40625V22.5431C1.40625 20.4396 3.11755 18.7281 5.2218 18.7281C7.3288 18.7281 9.03754 20.4328 9.03754 22.5438V22.5938Z" fill="white"/>
<path d="M19.5394 17.8373C20.1978 17.227 20.6109 16.3556 20.6109 15.3892C20.6109 13.548 19.1131 12.05 17.272 12.05C15.4308 12.05 13.9329 13.5479 13.9329 15.3892C13.9329 16.3556 14.3459 17.227 15.0044 17.8373C13.6978 18.4681 12.05 20.0336 12.05 22.5438V23.2969C12.05 23.6853 12.3649 24.0001 12.7531 24.0001H21.7906C22.179 24.0001 22.4938 23.6853 22.4938 23.2969V22.5438C22.4938 20.0419 20.8575 18.4736 19.5394 17.8373ZM15.3391 15.3892C15.3391 14.3233 16.2061 13.4563 17.272 13.4563C18.3376 13.4563 19.2047 14.3233 19.2047 15.3892C19.2047 16.4548 18.3376 17.3218 17.272 17.3218C16.2061 17.3218 15.3391 16.4548 15.3391 15.3892ZM21.0875 22.5938H13.4562V22.5438C13.4562 20.437 15.1609 18.7283 17.272 18.7283C19.3788 18.7283 21.0875 20.4328 21.0875 22.5438V22.5938Z" fill="white"/>
<path d="M13.9281 5.41243C13.6173 5.17952 13.1766 5.24251 12.9437 5.55324C12.5454 6.08443 11.9111 6.40157 11.2468 6.40157C10.5825 6.40157 9.94826 6.08443 9.55 5.55324C9.31709 5.24251 8.87636 5.17952 8.56581 5.41243C8.25508 5.64534 8.19191 6.08608 8.42482 6.39681C9.0873 7.28029 10.1422 7.80782 11.2468 7.80782C12.3515 7.80782 13.4064 7.28029 14.0689 6.39681C14.3018 6.08608 14.2388 5.64534 13.9281 5.41243Z" fill="white"/>
<path d="M10.4438 3.71558C10.4438 4.10394 10.129 4.4187 9.74066 4.4187C9.35229 4.4187 9.03754 4.10394 9.03754 3.71558C9.03754 3.32739 9.35229 3.01245 9.74066 3.01245C10.129 3.01245 10.4438 3.32739 10.4438 3.71558Z" fill="white"/>
<path d="M13.4562 3.71558C13.4562 4.10394 13.1415 4.4187 12.7531 4.4187C12.3647 4.4187 12.05 4.10394 12.05 3.71558C12.05 3.32739 12.3647 3.01245 12.7531 3.01245C13.1415 3.01245 13.4562 3.32739 13.4562 3.71558Z" fill="white"/>
<path d="M17.272 10.4438C18.4902 10.4438 19.4813 9.45264 19.4813 8.23444V2.20935C19.4813 0.978333 18.4825 0 17.272 0H5.22198C3.99005 0 3.01245 0.999573 3.01245 2.20935V8.23444C3.01245 9.45264 4.0036 10.4438 5.22198 10.4438H8.74805L10.6181 14.1837C10.7371 14.4219 10.9807 14.5724 11.2469 14.5724C11.5133 14.5724 11.7567 14.4219 11.8759 14.1837L13.7457 10.4438H17.272ZM12.6824 9.42627L11.2469 12.297L9.81152 9.42627C9.69232 9.18805 9.44897 9.03754 9.18256 9.03754H5.22198C4.77905 9.03754 4.4187 8.67719 4.4187 8.23444V2.20935C4.4187 1.77228 4.77209 1.40625 5.22198 1.40625H17.272C17.7178 1.40625 18.0751 1.76788 18.0751 2.20935V8.23444C18.0751 8.67719 17.7147 9.03754 17.272 9.03754H13.3112C13.0448 9.03754 12.8015 9.18805 12.6824 9.42627Z" fill="white"/>
</g>
<defs>
<clipPath id="clip0_44_653">
<rect width="24" height="24" fill="white"/>
</clipPath>
</defs>
</svg>
