<svg width="24" height="24" viewBox="0 0 24 24" fill="none" xmlns="http://www.w3.org/2000/svg">
<g clip-path="url(#clip0_50_1241)">
<g clip-path="url(#clip1_50_1241)">
<path d="M23.7472 4.89356L19.0599 0.205969C18.928 0.0740625 18.7492 0 18.5627 0H7.78125C6.61814 0 5.67188 0.946266 5.67188 2.10938V11.383C2.51222 11.7339 0.046875 14.4202 0.046875 17.6719C0.046875 21.1612 2.88567 24 6.375 24H21.8438C23.0069 24 23.9531 23.0537 23.9531 21.8906V5.39077C23.9531 5.20425 23.8791 5.02547 23.7472 4.89356ZM19.2656 2.40061L20.7933 3.92831L21.5525 4.6875H19.2656V2.40061ZM1.45312 17.6719C1.45312 14.958 3.66108 12.75 6.375 12.75C9.08892 12.75 11.2969 14.958 11.2969 17.6719C11.2969 20.3858 9.08892 22.5938 6.375 22.5938C3.66108 22.5938 1.45312 20.3858 1.45312 17.6719ZM21.8438 22.5938H10.3476C11.6115 21.5716 12.4752 20.0738 12.6639 18.375H19.9688C20.3571 18.375 20.6719 18.0602 20.6719 17.6719C20.6719 17.2836 20.3571 16.9688 19.9688 16.9688H12.6638C12.5492 15.9366 12.1855 14.9785 11.6341 14.1562H19.9688C20.3571 14.1562 20.6719 13.8414 20.6719 13.4531C20.6719 13.0648 20.3571 12.75 19.9688 12.75H10.3476C9.43256 12.01 8.30803 11.5196 7.07812 11.383V2.10938C7.07812 1.72167 7.39355 1.40625 7.78125 1.40625H17.8594V5.39062C17.8594 5.77894 18.1742 6.09375 18.5625 6.09375H22.5469V21.8906C22.5469 22.2783 22.2315 22.5938 21.8438 22.5938Z" fill="white"/>
<path d="M19.9688 8.53125H9.65625C9.26794 8.53125 8.95312 8.84606 8.95312 9.23438C8.95312 9.62269 9.26794 9.9375 9.65625 9.9375H19.9688C20.3571 9.9375 20.6719 9.62269 20.6719 9.23438C20.6719 8.84606 20.3571 8.53125 19.9688 8.53125Z" fill="white"/>
<path d="M9.16905 15.9091C8.89451 15.6345 8.44929 15.6345 8.1747 15.9091L5.39065 18.6931L4.48155 17.784C4.20701 17.5095 3.76179 17.5095 3.4872 17.784C3.2126 18.0586 3.2126 18.5038 3.4872 18.7784L4.89345 20.1847C5.03074 20.322 5.2107 20.3906 5.39065 20.3906C5.5706 20.3906 5.75056 20.322 5.8878 20.1847L9.16905 16.9034C9.44365 16.6289 9.44365 16.1836 9.16905 15.9091Z" fill="white"/>
</g>
</g>
<defs>
<clipPath id="clip0_50_1241">
<rect width="24" height="24" fill="white"/>
</clipPath>
<clipPath id="clip1_50_1241">
<rect width="24" height="24" fill="white"/>
</clipPath>
</defs>
</svg>
