<svg width="24" height="24" viewBox="0 0 24 24" fill="none" xmlns="http://www.w3.org/2000/svg">
<g clip-path="url(#clip0_52_812)">
<path d="M16.8 0H7.20005C5.87719 0 4.80005 1.07714 4.80005 2.4V21.6C4.80005 22.9238 5.87719 24 7.20005 24H16.8C18.1239 24 19.2 22.9238 19.2 21.6V2.4C19.2 1.07714 18.1239 0 16.8 0ZM18.24 21.6C18.24 22.3939 17.594 23.04 16.8 23.04H7.20005C6.40613 23.04 5.76005 22.3939 5.76005 21.6V2.4C5.76005 1.60608 6.40613 0.96 7.20005 0.96H16.8C17.594 0.96 18.24 1.60608 18.24 2.4V21.6Z" fill="white"/>
<path d="M12.9601 1.91998H11.0401C10.7751 1.91998 10.5601 2.13505 10.5601 2.39998C10.5601 2.66492 10.7751 2.87998 11.0401 2.87998H12.9601C13.225 2.87998 13.4401 2.66492 13.4401 2.39998C13.4401 2.13505 13.225 1.91998 12.9601 1.91998Z" fill="white"/>
<path d="M12 21.12C11.7351 21.12 11.52 21.3351 11.52 21.6C11.52 21.8649 11.7351 22.08 12 22.08C12.265 22.08 12.48 21.8649 12.48 21.6C12.48 21.3351 12.265 21.12 12 21.12Z" fill="white"/>
<path d="M18.72 3.84003H5.28005C5.01506 3.84003 4.80005 4.05509 4.80005 4.32003C4.80005 4.58501 5.01506 4.80003 5.28005 4.80003H18.72C18.985 4.80003 19.2 4.58496 19.2 4.32003C19.2 4.05509 18.985 3.84003 18.72 3.84003Z" fill="white"/>
<path d="M18.72 19.2H5.28005C5.01506 19.2 4.80005 19.4151 4.80005 19.68C4.80005 19.9449 5.01506 20.16 5.28005 20.16H18.72C18.985 20.16 19.2 19.9449 19.2 19.68C19.2 19.4151 18.985 19.2 18.72 19.2Z" fill="white"/>
</g>
<defs>
<clipPath id="clip0_52_812">
<rect width="24" height="24" fill="white"/>
</clipPath>
</defs>
</svg>
