<svg width="24" height="24" viewBox="0 0 24 24" fill="none" xmlns="http://www.w3.org/2000/svg">
<g clip-path="url(#clip0_12_319)">
<g clip-path="url(#clip1_12_319)">
<path d="M23.4971 10.607C23.1606 10.2476 22.7063 10.0222 22.2183 9.97067C22.3992 9.60031 22.4648 9.18346 22.4055 8.77439C22.3426 8.34049 22.1424 7.9381 21.8344 7.6261L21.8342 7.62589L16.7457 2.53417L16.7325 2.51003H16.7199L14.7622 0.549895L14.7621 0.549838C14.3778 0.166274 13.857 -0.0491455 13.314 -0.0491455C12.771 -0.0491455 12.2502 0.166274 11.8659 0.549838L11.8659 0.54988L0.549056 11.8711L0.548881 11.8713C0.166542 12.2576 -0.0479248 12.7791 -0.0479248 13.3226C-0.0479248 13.8661 0.166542 14.3877 0.548881 14.774L0.549074 14.7742L2.52106 16.745L2.52107 16.745L3.94642 18.1703V22V22.0001C3.94707 22.5436 4.16325 23.0646 4.54755 23.4489C4.93185 23.8332 5.45288 24.0494 5.99636 24.05H5.99642H22H22.0001C22.5436 24.0494 23.0646 23.8332 23.4489 23.4489C23.8332 23.0646 24.0494 22.5436 24.05 22.0001V22L24.05 12L24.05 11.9999C24.0484 11.4824 23.8509 10.9847 23.4971 10.607ZM21.1977 9.89003L21.1975 9.89026L21.139 9.95003H9.95389L16.4196 3.48116L21.1966 8.26088C21.4117 8.47733 21.5325 8.77005 21.5327 9.07522C21.5329 9.38039 21.4125 9.67327 21.1977 9.89003ZM6.5607 9.95003L14.724 1.78436L15.7833 2.84443L8.6817 9.95003H6.5607ZM1.78032 14.732L3.95002 12.5608V14.6817L2.84002 15.7917L1.78032 14.732ZM3.47633 16.428L3.95002 15.9543V16.9017L3.47633 16.428ZM23.15 12V22C23.15 22.305 23.0289 22.5975 22.8132 22.8132C22.5975 23.0289 22.305 23.15 22 23.15H6.00002C5.69502 23.15 5.40251 23.0289 5.18685 22.8132C4.97118 22.5975 4.85002 22.305 4.85002 22V12C4.85002 11.695 4.97118 11.4025 5.18685 11.1869C5.40251 10.9712 5.69502 10.85 6.00002 10.85H22C22.305 10.85 22.5975 10.9712 22.8132 11.1869C23.0289 11.4025 23.15 11.695 23.15 12ZM1.1864 12.506L12.5014 1.18698C12.5015 1.18685 12.5016 1.18673 12.5018 1.1866C12.7203 0.977915 13.0108 0.861276 13.313 0.860847C13.5983 0.860443 13.8733 0.963599 14.0876 1.15014L5.04034 10.1994C4.68314 10.3904 4.39052 10.6828 4.19939 11.0399L1.14608 14.0937C0.955925 13.8805 0.85068 13.604 0.851696 13.3172C0.852771 13.0134 0.972911 12.7222 1.18632 12.506C1.18634 12.506 1.18637 12.506 1.1864 12.506Z" fill="white" stroke="white" stroke-width="0.1"/>
<path d="M6.39998 15.25H8.79998C9.02541 15.25 9.24161 15.1604 9.40102 15.001C9.56042 14.8416 9.64998 14.6254 9.64998 14.4V12.8C9.64998 12.5746 9.56042 12.3584 9.40102 12.199C9.24161 12.0396 9.02541 11.95 8.79998 11.95H6.39998C6.17454 11.95 5.95834 12.0396 5.79893 12.199C5.63953 12.3584 5.54998 12.5746 5.54998 12.8V14.4C5.54998 14.6254 5.63953 14.8416 5.79893 15.001C5.95834 15.1604 6.17454 15.25 6.39998 15.25ZM6.44998 12.85H8.74998V14.35H6.44998V12.85Z" fill="white" stroke="white" stroke-width="0.1"/>
<path d="M5.99998 17.65C6.11932 17.65 6.23378 17.6026 6.31817 17.5182C6.40257 17.4338 6.44998 17.3193 6.44998 17.2V16.4C6.44998 16.2807 6.40257 16.1662 6.31817 16.0818C6.23378 15.9974 6.11932 15.95 5.99998 15.95C5.88063 15.95 5.76617 15.9974 5.68178 16.0818C5.59739 16.1662 5.54998 16.2807 5.54998 16.4V17.2C5.54998 17.3193 5.59739 17.4338 5.68178 17.5182C5.76617 17.6026 5.88063 17.65 5.99998 17.65Z" fill="white" stroke="white" stroke-width="0.1"/>
<path d="M7.60007 15.95C7.48073 15.95 7.36627 15.9974 7.28187 16.0818C7.19748 16.1662 7.15007 16.2807 7.15007 16.4V17.2C7.15007 17.3193 7.19748 17.4338 7.28187 17.5182C7.36627 17.6026 7.48073 17.65 7.60007 17.65C7.71942 17.65 7.83388 17.6026 7.91827 17.5182C8.00266 17.4338 8.05007 17.3193 8.05007 17.2V16.4C8.05007 16.2807 8.00266 16.1662 7.91827 16.0818C7.83388 15.9974 7.71942 15.95 7.60007 15.95Z" fill="white" stroke="white" stroke-width="0.1"/>
<path d="M8.75005 16.4V17.2C8.75005 17.3193 8.79746 17.4338 8.88185 17.5182C8.96624 17.6026 9.0807 17.65 9.20005 17.65C9.3194 17.65 9.43386 17.6026 9.51825 17.5182C9.60264 17.4338 9.65005 17.3193 9.65005 17.2V16.4C9.65005 16.2807 9.60264 16.1662 9.51825 16.0818C9.43386 15.9974 9.3194 15.95 9.20005 15.95C9.0807 15.95 8.96624 15.9974 8.88185 16.0818C8.79746 16.1662 8.75005 16.2807 8.75005 16.4Z" fill="white" stroke="white" stroke-width="0.1"/>
<path d="M10.8 15.95C10.6807 15.95 10.5662 15.9974 10.4818 16.0818C10.3974 16.1662 10.35 16.2807 10.35 16.4V17.2C10.35 17.3193 10.3974 17.4338 10.4818 17.5182C10.5662 17.6026 10.6807 17.65 10.8 17.65C10.9194 17.65 11.0338 17.6026 11.1182 17.5182C11.2026 17.4338 11.25 17.3193 11.25 17.2V16.4C11.25 16.2807 11.2026 16.1662 11.1182 16.0818C11.0338 15.9974 10.9194 15.95 10.8 15.95Z" fill="white" stroke="white" stroke-width="0.1"/>
<path d="M12.4 17.65C12.5193 17.65 12.6338 17.6026 12.7182 17.5182C12.8026 17.4338 12.85 17.3193 12.85 17.2V16.4C12.85 16.2807 12.8026 16.1662 12.7182 16.0818C12.6338 15.9974 12.5193 15.95 12.4 15.95C12.2807 15.95 12.1662 15.9974 12.0818 16.0818C11.9974 16.1662 11.95 16.2807 11.95 16.4V17.2C11.95 17.3193 11.9974 17.4338 12.0818 17.5182C12.1662 17.6026 12.2807 17.65 12.4 17.65Z" fill="white" stroke="white" stroke-width="0.1"/>
<path d="M15.6 15.95C15.4807 15.95 15.3662 15.9974 15.2818 16.0818C15.1974 16.1662 15.15 16.2807 15.15 16.4V17.2C15.15 17.3193 15.1974 17.4338 15.2818 17.5182C15.3662 17.6026 15.4807 17.65 15.6 17.65C15.7194 17.65 15.8338 17.6026 15.9182 17.5182C16.0026 17.4338 16.05 17.3193 16.05 17.2V16.4C16.05 16.2807 16.0026 16.1662 15.9182 16.0818C15.8338 15.9974 15.7194 15.95 15.6 15.95Z" fill="white" stroke="white" stroke-width="0.1"/>
<path d="M17.2 15.95C17.0807 15.95 16.9662 15.9974 16.8819 16.0818C16.7975 16.1662 16.75 16.2807 16.75 16.4V17.2C16.75 17.3193 16.7975 17.4338 16.8819 17.5182C16.9662 17.6026 17.0807 17.65 17.2 17.65C17.3194 17.65 17.4339 17.6026 17.5182 17.5182C17.6026 17.4338 17.65 17.3193 17.65 17.2V16.4C17.65 16.2807 17.6026 16.1662 17.5182 16.0818C17.4339 15.9974 17.3194 15.95 17.2 15.95Z" fill="white" stroke="white" stroke-width="0.1"/>
<path d="M18.8 15.95C18.6807 15.95 18.5662 15.9974 18.4818 16.0818C18.3974 16.1662 18.35 16.2807 18.35 16.4V17.2C18.35 17.3193 18.3974 17.4338 18.4818 17.5182C18.5662 17.6026 18.6807 17.65 18.8 17.65C18.9194 17.65 19.0338 17.6026 19.1182 17.5182C19.2026 17.4338 19.25 17.3193 19.25 17.2V16.4C19.25 16.2807 19.2026 16.1662 19.1182 16.0818C19.0338 15.9974 18.9194 15.95 18.8 15.95Z" fill="white" stroke="white" stroke-width="0.1"/>
<path d="M20.4 15.95C20.2807 15.95 20.1662 15.9974 20.0818 16.0818C19.9974 16.1662 19.95 16.2807 19.95 16.4V17.2C19.95 17.3193 19.9974 17.4338 20.0818 17.5182C20.1662 17.6026 20.2807 17.65 20.4 17.65C20.5193 17.65 20.6338 17.6026 20.7182 17.5182C20.8026 17.4338 20.85 17.3193 20.85 17.2V16.4C20.85 16.2807 20.8026 16.1662 20.7182 16.0818C20.6338 15.9974 20.5193 15.95 20.4 15.95Z" fill="white" stroke="white" stroke-width="0.1"/>
<path d="M7.59998 18.35H5.99998C5.88063 18.35 5.76617 18.3974 5.68178 18.4818C5.59739 18.5662 5.54998 18.6807 5.54998 18.8C5.54998 18.9194 5.59739 19.0338 5.68178 19.1182C5.76617 19.2026 5.88063 19.25 5.99998 19.25H7.59998C7.71932 19.25 7.83378 19.2026 7.91817 19.1182C8.00257 19.0338 8.04998 18.9194 8.04998 18.8C8.04998 18.6807 8.00257 18.5662 7.91817 18.4818C7.83378 18.3974 7.71932 18.35 7.59998 18.35Z" fill="white" stroke="white" stroke-width="0.1"/>
<path d="M10.8 18.35H9.20005C9.0807 18.35 8.96624 18.3974 8.88185 18.4818C8.79746 18.5662 8.75005 18.6807 8.75005 18.8C8.75005 18.9194 8.79746 19.0338 8.88185 19.1182C8.96624 19.2026 9.0807 19.25 9.20005 19.25H10.8C10.9194 19.25 11.0339 19.2026 11.1182 19.1182C11.2026 19.0338 11.25 18.9194 11.25 18.8C11.25 18.6807 11.2026 18.5662 11.1182 18.4818C11.0339 18.3974 10.9194 18.35 10.8 18.35Z" fill="white" stroke="white" stroke-width="0.1"/>
<path d="M7.59998 19.95H5.99998C5.88063 19.95 5.76617 19.9974 5.68178 20.0818C5.59739 20.1662 5.54998 20.2807 5.54998 20.4C5.54998 20.5193 5.59739 20.6338 5.68178 20.7182C5.76617 20.8026 5.88063 20.85 5.99998 20.85H7.59998C7.71932 20.85 7.83378 20.8026 7.91817 20.7182C8.00257 20.6338 8.04998 20.5193 8.04998 20.4C8.04998 20.2807 8.00257 20.1662 7.91817 20.0818C7.83378 19.9974 7.71932 19.95 7.59998 19.95Z" fill="white" stroke="white" stroke-width="0.1"/>
<path d="M10.8 19.95H9.20005C9.0807 19.95 8.96624 19.9974 8.88185 20.0818C8.79746 20.1662 8.75005 20.2807 8.75005 20.4C8.75005 20.5193 8.79746 20.6338 8.88185 20.7182C8.96624 20.8026 9.0807 20.85 9.20005 20.85H10.8C10.9194 20.85 11.0339 20.8026 11.1182 20.7182C11.2026 20.6338 11.25 20.5193 11.25 20.4C11.25 20.2807 11.2026 20.1662 11.1182 20.0818C11.0339 19.9974 10.9194 19.95 10.8 19.95Z" fill="white" stroke="white" stroke-width="0.1"/>
<path d="M14 18.35H12.4C12.2807 18.35 12.1662 18.3974 12.0818 18.4818C11.9974 18.5662 11.95 18.6807 11.95 18.8C11.95 18.9194 11.9974 19.0338 12.0818 19.1182C12.1662 19.2026 12.2807 19.25 12.4 19.25H14C14.1193 19.25 14.2338 19.2026 14.3182 19.1182C14.4026 19.0338 14.45 18.9194 14.45 18.8C14.45 18.6807 14.4026 18.5662 14.3182 18.4818C14.2338 18.3974 14.1193 18.35 14 18.35Z" fill="white" stroke="white" stroke-width="0.1"/>
</g>
</g>
<defs>
<clipPath id="clip0_12_319">
<rect width="24" height="24" fill="white"/>
</clipPath>
<clipPath id="clip1_12_319">
<rect width="24" height="24" fill="white"/>
</clipPath>
</defs>
</svg>
