<svg width="24" height="24" viewBox="0 0 24 24" fill="none" xmlns="http://www.w3.org/2000/svg">
<g clip-path="url(#clip0_47_1145)">
<path d="M23.2015 5.49808C22.7224 4.99618 22.0608 4.6996 21.308 4.6996H17.5209V4.65397C17.5209 4.08363 17.2928 3.5361 16.9049 3.17108C16.5171 2.78325 15.9924 2.55511 15.4221 2.55511H8.57795C7.98479 2.55511 7.46008 2.78325 7.07224 3.17108C6.68441 3.55892 6.45627 4.08363 6.45627 4.65397V4.6996H2.69202C1.93916 4.6996 1.27757 4.99618 0.798479 5.49808C0.319392 5.97717 0 6.66158 0 7.39162V18.7528C0 19.5057 0.296578 20.1673 0.798479 20.6464C1.27757 21.1255 1.96198 21.4448 2.69202 21.4448H21.308C22.0608 21.4448 22.7224 21.1483 23.2015 20.6464C23.6806 20.1673 24 19.4829 24 18.7528V7.39162C24 6.63877 23.7034 5.97717 23.2015 5.49808ZM22.8137 18.7528H22.7909C22.7909 19.1635 22.6312 19.5285 22.3574 19.8023C22.0836 20.076 21.7186 20.2357 21.308 20.2357H2.69202C2.28137 20.2357 1.91635 20.076 1.64259 19.8023C1.36882 19.5285 1.20913 19.1635 1.20913 18.7528V7.39162C1.20913 6.98097 1.36882 6.61595 1.64259 6.34219C1.91635 6.06842 2.28137 5.90873 2.69202 5.90873H7.09506C7.43726 5.90873 7.71103 5.63496 7.71103 5.29276V4.63116C7.71103 4.38021 7.80228 4.15207 7.96198 3.99238C8.12167 3.83268 8.34981 3.74143 8.60076 3.74143H15.4221C15.673 3.74143 15.9011 3.83268 16.0608 3.99238C16.2205 4.15207 16.3118 4.38021 16.3118 4.63116V5.29276C16.3118 5.63496 16.5856 5.90873 16.9278 5.90873H21.3308C21.7414 5.90873 22.1065 6.06842 22.3802 6.34219C22.654 6.61595 22.8137 6.98097 22.8137 7.39162V18.7528Z" fill="white"/>
<path d="M12 7.46008C10.4487 7.46008 9.03421 8.09887 8.0304 9.10267C7.00379 10.1293 6.38782 11.5209 6.38782 13.0722C6.38782 14.6236 7.0266 16.038 8.0304 17.0418C9.05702 18.0684 10.4487 18.6844 12 18.6844C13.5513 18.6844 14.9658 18.0456 15.9696 17.0418C16.9962 16.0152 17.6122 14.6236 17.6122 13.0722C17.6122 11.5209 16.9734 10.1065 15.9696 9.10267C14.9658 8.09887 13.5513 7.46008 12 7.46008ZM15.1026 16.1977C14.3042 16.9734 13.2091 17.4753 12 17.4753C10.7909 17.4753 9.6958 16.9734 8.89732 16.1977C8.09884 15.3992 7.61976 14.3042 7.61976 13.0951C7.61976 11.8859 8.12166 10.7909 8.89732 9.9924C9.6958 9.19392 10.7909 8.71484 12 8.71484C13.2091 8.71484 14.3042 9.21674 15.1026 9.9924C15.9011 10.7909 16.3802 11.8859 16.3802 13.0951C16.403 14.3042 15.9011 15.3992 15.1026 16.1977Z" fill="white"/>
<path d="M20.1217 9.673C20.739 9.673 21.2395 9.17251 21.2395 8.55513C21.2395 7.93774 20.739 7.43726 20.1217 7.43726C19.5043 7.43726 19.0038 7.93774 19.0038 8.55513C19.0038 9.17251 19.5043 9.673 20.1217 9.673Z" fill="white"/>
</g>
<defs>
<clipPath id="clip0_47_1145">
<rect width="24" height="24" fill="white"/>
</clipPath>
</defs>
</svg>
