<svg width="24" height="24" viewBox="0 0 24 24" fill="none" xmlns="http://www.w3.org/2000/svg">
<g clip-path="url(#clip0_12_345)">
<g clip-path="url(#clip1_12_345)">
<path d="M5.99998 2.04995H6.39998C6.64849 2.04995 6.84998 1.84847 6.84998 1.59995C6.84998 1.35144 6.64849 1.14995 6.39998 1.14995H5.99998C5.75146 1.14995 5.54998 1.35144 5.54998 1.59995C5.54998 1.84847 5.75146 2.04995 5.99998 2.04995Z" fill="white" stroke="white" stroke-width="0.1"/>
<path d="M7.99998 2.04995H8.39998C8.64849 2.04995 8.84998 1.84847 8.84998 1.59995C8.84998 1.35144 8.64849 1.14995 8.39998 1.14995H7.99998C7.75146 1.14995 7.54998 1.35144 7.54998 1.59995C7.54998 1.84847 7.75146 2.04995 7.99998 2.04995Z" fill="white" stroke="white" stroke-width="0.1"/>
<mask id="path-3-outside-1_12_345" maskUnits="userSpaceOnUse" x="-1" y="-1" width="26" height="26" fill="black">
<rect fill="white" x="-1" y="-1" width="26" height="26"/>
<path d="M23.6 4H14.4V2C14.4 0.89545 13.5045 0 12.4 0H2C0.89545 0 0 0.89545 0 2V20C0 21.1045 0.89545 22 2 22H9.6V23.6C9.6 23.8209 9.7791 24 10 24H18C18.2209 24 18.4 23.8209 18.4 23.6V21.2C18.4 20.9791 18.2209 20.8 18 20.8H17.6V20.644C17.6003 20.5643 17.624 20.4865 17.668 20.42L17.928 20.028C18.2358 19.5674 18.4001 19.0259 18.4 18.472V14.4H23.6C23.8209 14.4 24 14.2209 24 14V4.4C24 4.1791 23.8209 4 23.6 4ZM0.8 2C0.802 1.3381 1.3381 0.802 2 0.8H12.4C13.0619 0.802 13.598 1.3381 13.6 2V2.4H0.8V2ZM0.8 3.2H13.6V4H12.4C12.1791 4 12 4.1791 12 4.4V8.876C11.5171 9.06205 11.199 9.52655 11.2 10.044V13.6H10.8C10.1381 13.602 9.602 14.1381 9.6 14.8V18H0.8V3.2ZM9.6 21.2H2C1.3381 21.198 0.802 20.6619 0.8 20V18.8H9.624C9.67445 19.2389 9.82795 19.6597 10.072 20.028L10.332 20.42C10.376 20.4865 10.3997 20.5643 10.4 20.644V20.8H10C9.7791 20.8 9.6 20.9791 9.6 21.2ZM17.6 23.2H10.4V21.6H17.6V23.2ZM17.6 18.472C17.6001 18.8677 17.4832 19.2545 17.264 19.584L17 19.976C16.8687 20.174 16.7991 20.4065 16.8 20.644V20.8H11.2V20.644C11.2009 20.4065 11.1313 20.174 11 19.976L10.736 19.584C10.5168 19.2545 10.3999 18.8677 10.4 18.472V14.8C10.4 14.5791 10.5791 14.4 10.8 14.4H11.2V16.4C11.2 16.6209 11.3791 16.8 11.6 16.8C11.8209 16.8 12 16.6209 12 16.4V10.044C11.9934 9.82585 12.1488 9.6363 12.364 9.6C12.484 9.59025 12.6019 9.63595 12.684 9.724C12.7597 9.79565 12.8018 9.8958 12.8 10V14.8C12.8 15.0209 12.9791 15.2 13.2 15.2C13.4209 15.2 13.6 15.0209 13.6 14.8V12.8C13.6 12.5791 13.7791 12.4 14 12.4C14.108 12.399 14.2113 12.4441 14.284 12.524C14.3597 12.5956 14.4018 12.6958 14.4 12.8V14.8C14.4 15.0209 14.5791 15.2 14.8 15.2C15.0209 15.2 15.2 15.0209 15.2 14.8V13.2C15.2 12.9791 15.3791 12.8 15.6 12.8C15.708 12.7991 15.8113 12.8442 15.884 12.924C15.9597 12.9957 16.0018 13.0958 16 13.2V14.8C16 15.0209 16.1791 15.2 16.4 15.2C16.6209 15.2 16.8 15.0209 16.8 14.8V14C16.8 13.7791 16.9791 13.6 17.2 13.6C17.308 13.5991 17.4113 13.6442 17.484 13.724C17.5597 13.7957 17.6018 13.8958 17.6 14V18.472ZM23.2 13.6H18.328C18.2701 13.4334 18.1758 13.2817 18.052 13.156C17.7113 12.821 17.2069 12.7148 16.76 12.884C16.7057 12.6839 16.5994 12.5018 16.452 12.356C16.0664 11.9837 15.4845 11.9028 15.012 12.156C14.9667 12.0833 14.913 12.0162 14.852 11.956C14.5224 11.6316 14.0382 11.5203 13.6 11.668V10C13.6018 9.6834 13.4764 9.37935 13.252 9.156C13.1242 9.0291 12.9698 8.9321 12.8 8.872V4.8H23.2V13.6Z"/>
</mask>
<path d="M23.6 4H14.4V2C14.4 0.89545 13.5045 0 12.4 0H2C0.89545 0 0 0.89545 0 2V20C0 21.1045 0.89545 22 2 22H9.6V23.6C9.6 23.8209 9.7791 24 10 24H18C18.2209 24 18.4 23.8209 18.4 23.6V21.2C18.4 20.9791 18.2209 20.8 18 20.8H17.6V20.644C17.6003 20.5643 17.624 20.4865 17.668 20.42L17.928 20.028C18.2358 19.5674 18.4001 19.0259 18.4 18.472V14.4H23.6C23.8209 14.4 24 14.2209 24 14V4.4C24 4.1791 23.8209 4 23.6 4ZM0.8 2C0.802 1.3381 1.3381 0.802 2 0.8H12.4C13.0619 0.802 13.598 1.3381 13.6 2V2.4H0.8V2ZM0.8 3.2H13.6V4H12.4C12.1791 4 12 4.1791 12 4.4V8.876C11.5171 9.06205 11.199 9.52655 11.2 10.044V13.6H10.8C10.1381 13.602 9.602 14.1381 9.6 14.8V18H0.8V3.2ZM9.6 21.2H2C1.3381 21.198 0.802 20.6619 0.8 20V18.8H9.624C9.67445 19.2389 9.82795 19.6597 10.072 20.028L10.332 20.42C10.376 20.4865 10.3997 20.5643 10.4 20.644V20.8H10C9.7791 20.8 9.6 20.9791 9.6 21.2ZM17.6 23.2H10.4V21.6H17.6V23.2ZM17.6 18.472C17.6001 18.8677 17.4832 19.2545 17.264 19.584L17 19.976C16.8687 20.174 16.7991 20.4065 16.8 20.644V20.8H11.2V20.644C11.2009 20.4065 11.1313 20.174 11 19.976L10.736 19.584C10.5168 19.2545 10.3999 18.8677 10.4 18.472V14.8C10.4 14.5791 10.5791 14.4 10.8 14.4H11.2V16.4C11.2 16.6209 11.3791 16.8 11.6 16.8C11.8209 16.8 12 16.6209 12 16.4V10.044C11.9934 9.82585 12.1488 9.6363 12.364 9.6C12.484 9.59025 12.6019 9.63595 12.684 9.724C12.7597 9.79565 12.8018 9.8958 12.8 10V14.8C12.8 15.0209 12.9791 15.2 13.2 15.2C13.4209 15.2 13.6 15.0209 13.6 14.8V12.8C13.6 12.5791 13.7791 12.4 14 12.4C14.108 12.399 14.2113 12.4441 14.284 12.524C14.3597 12.5956 14.4018 12.6958 14.4 12.8V14.8C14.4 15.0209 14.5791 15.2 14.8 15.2C15.0209 15.2 15.2 15.0209 15.2 14.8V13.2C15.2 12.9791 15.3791 12.8 15.6 12.8C15.708 12.7991 15.8113 12.8442 15.884 12.924C15.9597 12.9957 16.0018 13.0958 16 13.2V14.8C16 15.0209 16.1791 15.2 16.4 15.2C16.6209 15.2 16.8 15.0209 16.8 14.8V14C16.8 13.7791 16.9791 13.6 17.2 13.6C17.308 13.5991 17.4113 13.6442 17.484 13.724C17.5597 13.7957 17.6018 13.8958 17.6 14V18.472ZM23.2 13.6H18.328C18.2701 13.4334 18.1758 13.2817 18.052 13.156C17.7113 12.821 17.2069 12.7148 16.76 12.884C16.7057 12.6839 16.5994 12.5018 16.452 12.356C16.0664 11.9837 15.4845 11.9028 15.012 12.156C14.9667 12.0833 14.913 12.0162 14.852 11.956C14.5224 11.6316 14.0382 11.5203 13.6 11.668V10C13.6018 9.6834 13.4764 9.37935 13.252 9.156C13.1242 9.0291 12.9698 8.9321 12.8 8.872V4.8H23.2V13.6Z" fill="white"/>
<path d="M23.6 4H14.4V2C14.4 0.89545 13.5045 0 12.4 0H2C0.89545 0 0 0.89545 0 2V20C0 21.1045 0.89545 22 2 22H9.6V23.6C9.6 23.8209 9.7791 24 10 24H18C18.2209 24 18.4 23.8209 18.4 23.6V21.2C18.4 20.9791 18.2209 20.8 18 20.8H17.6V20.644C17.6003 20.5643 17.624 20.4865 17.668 20.42L17.928 20.028C18.2358 19.5674 18.4001 19.0259 18.4 18.472V14.4H23.6C23.8209 14.4 24 14.2209 24 14V4.4C24 4.1791 23.8209 4 23.6 4ZM0.8 2C0.802 1.3381 1.3381 0.802 2 0.8H12.4C13.0619 0.802 13.598 1.3381 13.6 2V2.4H0.8V2ZM0.8 3.2H13.6V4H12.4C12.1791 4 12 4.1791 12 4.4V8.876C11.5171 9.06205 11.199 9.52655 11.2 10.044V13.6H10.8C10.1381 13.602 9.602 14.1381 9.6 14.8V18H0.8V3.2ZM9.6 21.2H2C1.3381 21.198 0.802 20.6619 0.8 20V18.8H9.624C9.67445 19.2389 9.82795 19.6597 10.072 20.028L10.332 20.42C10.376 20.4865 10.3997 20.5643 10.4 20.644V20.8H10C9.7791 20.8 9.6 20.9791 9.6 21.2ZM17.6 23.2H10.4V21.6H17.6V23.2ZM17.6 18.472C17.6001 18.8677 17.4832 19.2545 17.264 19.584L17 19.976C16.8687 20.174 16.7991 20.4065 16.8 20.644V20.8H11.2V20.644C11.2009 20.4065 11.1313 20.174 11 19.976L10.736 19.584C10.5168 19.2545 10.3999 18.8677 10.4 18.472V14.8C10.4 14.5791 10.5791 14.4 10.8 14.4H11.2V16.4C11.2 16.6209 11.3791 16.8 11.6 16.8C11.8209 16.8 12 16.6209 12 16.4V10.044C11.9934 9.82585 12.1488 9.6363 12.364 9.6C12.484 9.59025 12.6019 9.63595 12.684 9.724C12.7597 9.79565 12.8018 9.8958 12.8 10V14.8C12.8 15.0209 12.9791 15.2 13.2 15.2C13.4209 15.2 13.6 15.0209 13.6 14.8V12.8C13.6 12.5791 13.7791 12.4 14 12.4C14.108 12.399 14.2113 12.4441 14.284 12.524C14.3597 12.5956 14.4018 12.6958 14.4 12.8V14.8C14.4 15.0209 14.5791 15.2 14.8 15.2C15.0209 15.2 15.2 15.0209 15.2 14.8V13.2C15.2 12.9791 15.3791 12.8 15.6 12.8C15.708 12.7991 15.8113 12.8442 15.884 12.924C15.9597 12.9957 16.0018 13.0958 16 13.2V14.8C16 15.0209 16.1791 15.2 16.4 15.2C16.6209 15.2 16.8 15.0209 16.8 14.8V14C16.8 13.7791 16.9791 13.6 17.2 13.6C17.308 13.5991 17.4113 13.6442 17.484 13.724C17.5597 13.7957 17.6018 13.8958 17.6 14V18.472ZM23.2 13.6H18.328C18.2701 13.4334 18.1758 13.2817 18.052 13.156C17.7113 12.821 17.2069 12.7148 16.76 12.884C16.7057 12.6839 16.5994 12.5018 16.452 12.356C16.0664 11.9837 15.4845 11.9028 15.012 12.156C14.9667 12.0833 14.913 12.0162 14.852 11.956C14.5224 11.6316 14.0382 11.5203 13.6 11.668V10C13.6018 9.6834 13.4764 9.37935 13.252 9.156C13.1242 9.0291 12.9698 8.9321 12.8 8.872V4.8H23.2V13.6Z" stroke="white" stroke-width="0.2" mask="url(#path-3-outside-1_12_345)"/>
<path d="M3.20002 12.35H2.80002C2.55151 12.35 2.35002 12.5515 2.35002 12.8C2.35002 13.0485 2.55151 13.25 2.80002 13.25H3.20002C3.44854 13.25 3.65002 13.0485 3.65002 12.8C3.65002 12.5515 3.44854 12.35 3.20002 12.35Z" fill="white" stroke="white" stroke-width="0.1"/>
<path d="M8.80002 12.35H4.80002C4.55151 12.35 4.35002 12.5515 4.35002 12.8C4.35002 13.0485 4.55151 13.25 4.80002 13.25H8.80002C9.04854 13.25 9.25002 13.0485 9.25002 12.8C9.25002 12.5515 9.04854 12.35 8.80002 12.35Z" fill="white" stroke="white" stroke-width="0.1"/>
<path d="M3.20002 13.95H2.80002C2.55151 13.95 2.35002 14.1515 2.35002 14.4C2.35002 14.6485 2.55151 14.85 2.80002 14.85H3.20002C3.44854 14.85 3.65002 14.6485 3.65002 14.4C3.65002 14.1515 3.44854 13.95 3.20002 13.95Z" fill="white" stroke="white" stroke-width="0.1"/>
<path d="M8.00002 13.95H4.80002C4.55151 13.95 4.35002 14.1515 4.35002 14.4C4.35002 14.6485 4.55151 14.85 4.80002 14.85H8.00002C8.24854 14.85 8.45002 14.6485 8.45002 14.4C8.45002 14.1515 8.24854 13.95 8.00002 13.95Z" fill="white" stroke="white" stroke-width="0.1"/>
<path d="M3.20002 15.55H2.80002C2.55151 15.55 2.35002 15.7515 2.35002 16C2.35002 16.2485 2.55151 16.45 2.80002 16.45H3.20002C3.44854 16.45 3.65002 16.2485 3.65002 16C3.65002 15.7515 3.44854 15.55 3.20002 15.55Z" fill="white" stroke="white" stroke-width="0.1"/>
<path d="M8.00002 15.55H4.80002C4.55151 15.55 4.35002 15.7515 4.35002 16C4.35002 16.2485 4.55151 16.45 4.80002 16.45H8.00002C8.24854 16.45 8.45002 16.2485 8.45002 16C8.45002 15.7515 8.24854 15.55 8.00002 15.55Z" fill="white" stroke="white" stroke-width="0.1"/>
<path d="M17.2 11.65C17.6695 11.65 18.05 11.2694 18.05 10.8C18.05 10.3306 17.6695 9.95 17.2 9.95C16.7306 9.95 16.35 10.3306 16.35 10.8C16.35 11.2694 16.7306 11.65 17.2 11.65Z" fill="white" stroke="white" stroke-width="0.1"/>
<path d="M19.2 11.65C19.6695 11.65 20.05 11.2694 20.05 10.8C20.05 10.3306 19.6695 9.95 19.2 9.95C18.7306 9.95 18.35 10.3306 18.35 10.8C18.35 11.2694 18.7306 11.65 19.2 11.65Z" fill="white" stroke="white" stroke-width="0.1"/>
<path d="M16.0524 7.256H16.052L20.4 6.75H16.8973L16.8464 6.3442C16.8464 6.34419 16.8464 6.34419 16.8464 6.34418C16.8183 6.11902 16.6269 5.95006 16.4 5.95H16.4H15.6C15.3515 5.95 15.15 6.15149 15.15 6.4C15.15 6.64851 15.3515 6.85 15.6 6.85H16.0027L16.0524 7.24752V7.256ZM20.8271 7.3422C20.9056 7.10641 20.7781 6.8516 20.5423 6.77307L16.8 10V10.05H16.8001C16.8001 10.05 16.8002 10.05 16.8002 10.05L19.6 10.05C19.6 10.05 19.6 10.05 19.6 10.05C19.7938 10.0501 19.9658 9.92602 20.027 9.74221C20.027 9.74221 20.027 9.74221 20.027 9.74221L20.827 7.34221L20.8271 7.3422ZM17.1958 9.15L17.0083 7.65H19.7758L19.2756 9.15H17.1958Z" fill="white" stroke="white" stroke-width="0.1"/>
<path d="M8 19.55H6.4C6.15149 19.55 5.95 19.7515 5.95 20C5.95 20.2485 6.15149 20.45 6.4 20.45H8C8.24851 20.45 8.45 20.2485 8.45 20C8.45 19.7515 8.24851 19.55 8 19.55Z" fill="white" stroke="white" stroke-width="0.1"/>
<path d="M10.9097 5.16355L10.9098 5.16356C11.1098 5.2139 11.25 5.39379 11.25 5.60005V7.20005C11.25 7.23697 11.2454 7.27365 11.2365 7.30938L11.2365 7.30939C11.1761 7.55049 10.9317 7.69696 10.6906 7.63655L9.64995 7.37648V10.8C9.64995 11.0486 9.44847 11.2501 9.19995 11.2501H5.19995C4.95144 11.2501 4.74995 11.0486 4.74995 10.8V7.37648L3.70928 7.63656C3.67354 7.64549 3.63682 7.65005 3.59995 7.65005C3.35144 7.65005 3.14995 7.44856 3.14995 7.20005L3.14995 5.60006C3.14995 5.60006 3.14995 5.60005 3.14995 5.60005C3.1499 5.39378 3.29013 5.2139 3.49015 5.16356L3.49015 5.16356L5.08015 4.76356L5.08019 4.76355C5.11612 4.75454 5.153 4.75005 5.18995 4.75005H5.99995C6.24847 4.75005 6.44995 4.95154 6.44995 5.20005C6.44995 5.61429 6.78572 5.95005 7.19995 5.95005C7.61419 5.95005 7.94995 5.61429 7.94995 5.20005C7.94995 4.95154 8.15144 4.75005 8.39995 4.75005L9.20707 4.75005L9.20715 4.75005V4.80005C9.2399 4.8 9.27255 4.80405 9.30435 4.81205L10.9097 5.16355ZM10.9097 5.16355L9.31655 4.76356L10.9097 5.16355ZM10.35 6.62362L9.30927 6.36354L9.30908 6.36349C9.17475 6.3305 9.0327 6.36068 8.92335 6.44531L8.92321 6.44542C8.81391 6.53064 8.75001 6.66148 8.74995 6.80003V6.80005V10.35H5.64995V6.80005C5.64995 6.55154 5.44847 6.35005 5.19995 6.35005C5.16308 6.35005 5.12636 6.35461 5.09063 6.36354C5.09063 6.36354 5.09063 6.36354 5.09062 6.36354L4.04995 6.62362V5.95103L5.24615 5.65005H5.61245C5.85491 6.51005 6.74124 7.02331 7.6112 6.79967L7.59875 6.75125L7.6112 6.79967C8.18118 6.65312 8.62889 6.2145 8.78825 5.65005H9.15177L10.35 5.95104V6.62362Z" fill="white" stroke="white" stroke-width="0.1"/>
</g>
</g>
<defs>
<clipPath id="clip0_12_345">
<rect width="24" height="24" fill="white"/>
</clipPath>
<clipPath id="clip1_12_345">
<rect width="24" height="24" fill="white"/>
</clipPath>
</defs>
</svg>
