<svg width="24" height="24" viewBox="0 0 24 24" fill="none" xmlns="http://www.w3.org/2000/svg">
<g clip-path="url(#clip0_47_725)">
<path d="M14.9669 5.53045C14.9236 5.39652 14.839 5.27979 14.7251 5.19707C14.6113 5.11435 14.4741 5.06992 14.3333 5.07019H13.0349L12.6336 3.83526C12.5902 3.70148 12.5054 3.58489 12.3916 3.50221C12.2778 3.41953 12.1408 3.375 12.0001 3.375C11.8594 3.375 11.7223 3.41953 11.6085 3.50221C11.4947 3.58489 11.41 3.70148 11.3665 3.83526L10.9653 5.07019H9.66683C9.52615 5.07019 9.38909 5.11473 9.27528 5.19742C9.16147 5.28011 9.07676 5.3967 9.03328 5.5305C8.98981 5.66429 8.9898 5.80841 9.03327 5.9422C9.07673 6.076 9.16143 6.1926 9.27524 6.2753L10.3257 7.03847L9.92445 8.27339C9.8808 8.40721 9.88068 8.55142 9.9241 8.68532C9.96753 8.81922 10.0523 8.93591 10.1661 9.01864C10.28 9.10138 10.4172 9.14589 10.558 9.1458C10.6987 9.14571 10.8358 9.10102 10.9496 9.01814L12.0001 8.25497L13.0505 9.01819C13.1644 9.10087 13.3014 9.14541 13.4421 9.14541C13.5828 9.14541 13.7199 9.10087 13.8337 9.01818C13.9475 8.93549 14.0322 8.8189 14.0757 8.6851C14.1192 8.55131 14.1192 8.40719 14.0757 8.27339L13.6745 7.03847L14.7249 6.27525C14.8389 6.19273 14.9238 6.07614 14.9673 5.94229C15.0108 5.80843 15.0106 5.66422 14.9669 5.53045ZM13.0132 6.59184C12.9491 6.63839 12.9014 6.70404 12.877 6.77936C12.8525 6.85468 12.8525 6.93582 12.877 7.01114L13.2827 8.2598L12.2204 7.48809C12.1563 7.44159 12.0792 7.41655 12.0001 7.41655C11.9209 7.41655 11.8438 7.44159 11.7798 7.48809L10.7176 8.2598L11.1233 7.01114C11.1478 6.93582 11.1478 6.85468 11.1233 6.77936C11.0988 6.70404 11.0511 6.63839 10.9871 6.59184L9.92497 5.82019H11.2378C11.317 5.82019 11.3942 5.79512 11.4582 5.74857C11.5223 5.70202 11.57 5.63638 11.5945 5.56106L12.0001 4.31245L12.4058 5.56111C12.4303 5.63643 12.4779 5.70207 12.542 5.74862C12.6061 5.79517 12.6833 5.82024 12.7625 5.82023H14.0753L13.0132 6.59184Z" fill="white"/>
<path d="M7.34691 10.8743C7.44249 10.8742 7.53669 10.8515 7.62182 10.808C7.70696 10.7646 7.78061 10.7016 7.83677 10.6243C7.89294 10.5469 7.93001 10.4574 7.94498 10.363C7.95995 10.2686 7.95239 10.172 7.92291 10.0811L7.62253 9.15669L8.40891 8.58538C8.51238 8.51019 8.58939 8.40418 8.62891 8.28254C8.66844 8.1609 8.66843 8.02986 8.62891 7.90822C8.58938 7.78658 8.51236 7.68057 8.40889 7.60539C8.30541 7.53021 8.18079 7.48972 8.05289 7.48972H7.08094L6.78056 6.56535C6.74104 6.4437 6.66401 6.3377 6.56054 6.26252C6.45706 6.18734 6.33244 6.14685 6.20454 6.14685C6.07664 6.14685 5.95202 6.18734 5.84854 6.26252C5.74506 6.3377 5.66804 6.4437 5.62852 6.56535L5.32814 7.48977H4.35614C4.22822 7.48972 4.10357 7.53018 4.00005 7.60534C3.89654 7.6805 3.81948 7.7865 3.77993 7.90816C3.74037 8.02981 3.74035 8.16086 3.77986 8.28253C3.81938 8.4042 3.8964 8.51023 3.99989 8.58542L4.78627 9.15674L4.48598 10.0811C4.44646 10.2027 4.44646 10.3338 4.48598 10.4554C4.5255 10.5771 4.60251 10.6831 4.70598 10.7582C4.80945 10.8334 4.93406 10.8739 5.06196 10.8739C5.18985 10.874 5.31447 10.8335 5.41795 10.7583L6.20433 10.187L6.9907 10.7583C7.09418 10.8337 7.21889 10.8743 7.34691 10.8743ZM5.98406 9.42003L5.33672 9.89061L5.58403 9.12955C5.60852 9.05422 5.60852 8.97307 5.58404 8.89773C5.55956 8.8224 5.51186 8.75675 5.44777 8.7102L4.80042 8.23991H5.60063C5.67981 8.23991 5.75696 8.21484 5.82102 8.1683C5.88509 8.12176 5.93277 8.05613 5.95725 7.98083L6.20452 7.21977L6.45183 7.98083C6.47631 8.05613 6.52399 8.12176 6.58806 8.1683C6.65212 8.21484 6.72927 8.23991 6.80845 8.23991H7.60861L6.96127 8.71025C6.89719 8.7568 6.8495 8.82244 6.82503 8.89777C6.80056 8.97309 6.80057 9.05423 6.82505 9.12955L7.07231 9.89061L6.42492 9.42022C6.36088 9.37365 6.28373 9.34855 6.20455 9.34852C6.12536 9.34848 6.0482 9.37352 5.98411 9.42003H5.98406Z" fill="white"/>
<path d="M5.01897 12.3646H4.04697L3.74659 11.4403C3.70708 11.3186 3.63006 11.2126 3.52659 11.1374C3.42312 11.0622 3.2985 11.0217 3.17059 11.0217C3.04269 11.0217 2.91807 11.0622 2.81459 11.1374C2.71112 11.2126 2.6341 11.3186 2.59459 11.4403L2.29417 12.3647H1.32222C1.19431 12.3647 1.06969 12.4052 0.966219 12.4804C0.862744 12.5555 0.785724 12.6615 0.746199 12.7832C0.706673 12.9048 0.706671 13.0359 0.746191 13.1575C0.785712 13.2791 0.862728 13.3852 0.9662 13.4603L1.75257 14.0316L1.4522 14.9561C1.41267 15.0777 1.41266 15.2088 1.45218 15.3304C1.4917 15.4521 1.56872 15.5581 1.67219 15.6333C1.77567 15.7084 1.90029 15.7489 2.0282 15.7489C2.15611 15.7489 2.28073 15.7085 2.38422 15.6333L3.17059 15.0619L3.95697 15.6333C4.06045 15.7085 4.18511 15.7491 4.31306 15.7491C4.44102 15.7491 4.5657 15.7086 4.66921 15.6334C4.77273 15.5582 4.84976 15.4521 4.88927 15.3304C4.92878 15.2087 4.92872 15.0776 4.88912 14.956L4.58879 14.0316L5.37517 13.4603C5.47866 13.3851 5.55568 13.2791 5.5952 13.1574C5.63471 13.0357 5.63469 12.9047 5.59513 12.783C5.55558 12.6614 5.47852 12.5554 5.37501 12.4802C5.27149 12.405 5.14684 12.3646 5.01892 12.3646H5.01897ZM3.92734 13.5849C3.86325 13.6315 3.81554 13.6971 3.79106 13.7725C3.76658 13.8478 3.76659 13.9289 3.79108 14.0043L4.03839 14.7655L3.391 14.2949C3.32695 14.2484 3.24983 14.2234 3.17068 14.2234C3.09154 14.2234 3.01442 14.2484 2.95037 14.2949L2.30279 14.7655L2.55006 14.0043C2.57454 13.929 2.57455 13.8478 2.55007 13.7725C2.5256 13.6972 2.47791 13.6315 2.41384 13.585L1.7665 13.1146H2.56665C2.64584 13.1146 2.72299 13.0896 2.78705 13.043C2.85111 12.9965 2.8988 12.9309 2.92328 12.8556L3.17059 12.0945L3.41786 12.8556C3.44233 12.9309 3.49002 12.9965 3.55408 13.043C3.61815 13.0896 3.6953 13.1146 3.77448 13.1146H4.57468L3.92734 13.5849Z" fill="white"/>
<path d="M22.644 12.3646H21.672L21.3716 11.4403C21.3321 11.3186 21.2551 11.2126 21.1516 11.1374C21.0481 11.0622 20.9235 11.0217 20.7956 11.0217C20.6677 11.0217 20.5431 11.0622 20.4396 11.1374C20.3361 11.2126 20.2591 11.3186 20.2196 11.4403L19.9192 12.3647H18.9472C18.8193 12.3646 18.6946 12.4051 18.5911 12.4802C18.4876 12.5554 18.4105 12.6614 18.371 12.7831C18.3314 12.9047 18.3314 13.0358 18.3709 13.1574C18.4104 13.2791 18.4875 13.3851 18.591 13.4603L19.3773 14.0316L19.077 14.9561C19.0374 15.0777 19.0374 15.2088 19.0769 15.3304C19.1165 15.4521 19.1935 15.5581 19.2969 15.6333C19.4004 15.7084 19.525 15.7489 19.653 15.7489C19.7809 15.7489 19.9055 15.7085 20.009 15.6333L20.7953 15.0619L21.5817 15.6333C21.6852 15.7086 21.8099 15.7493 21.9379 15.7493C22.0659 15.7494 22.1906 15.7089 22.2942 15.6337C22.3978 15.5585 22.4748 15.4523 22.5144 15.3306C22.5539 15.2088 22.5538 15.0777 22.5141 14.956L22.2138 14.0316L23.0002 13.4603C23.1036 13.3851 23.1807 13.2791 23.2202 13.1574C23.2597 13.0357 23.2597 12.9047 23.2201 12.783C23.1806 12.6614 23.1035 12.5554 23 12.4802C22.8965 12.405 22.7718 12.3646 22.6439 12.3646H22.644ZM21.5523 13.5849C21.4882 13.6315 21.4405 13.6971 21.4161 13.7725C21.3916 13.8478 21.3916 13.9289 21.4161 14.0043L21.6634 14.7655L21.016 14.2949C20.9519 14.2484 20.8748 14.2234 20.7957 14.2234C20.7165 14.2234 20.6394 14.2484 20.5754 14.2949L19.9278 14.7655L20.175 14.0043C20.1995 13.929 20.1995 13.8478 20.1751 13.7725C20.1506 13.6972 20.1029 13.6315 20.0388 13.585L19.3915 13.1146H20.1916C20.2708 13.1146 20.348 13.0896 20.412 13.043C20.4761 12.9965 20.5238 12.9309 20.5483 12.8556L20.7956 12.0945L21.0428 12.8556C21.0673 12.9309 21.115 12.9965 21.1791 13.043C21.2431 13.0896 21.3203 13.1146 21.3995 13.1146H22.1997L21.5523 13.5849Z" fill="white"/>
<path d="M18.9379 10.8742C19.0335 10.8741 19.1278 10.8514 19.2129 10.808C19.2981 10.7646 19.3718 10.7016 19.4279 10.6243C19.4841 10.5469 19.5212 10.4574 19.5362 10.363C19.5512 10.2685 19.5436 10.1719 19.5141 10.081L19.2138 9.1566L20.0002 8.58529C20.1036 8.51009 20.1807 8.40406 20.2202 8.28239C20.2597 8.16073 20.2597 8.02967 20.2201 7.90802C20.1806 7.78637 20.1035 7.68036 20 7.6052C19.8965 7.53004 19.7718 7.48958 19.6439 7.48963H18.672L18.3716 6.56526C18.3321 6.44361 18.2551 6.33759 18.1516 6.26241C18.0481 6.18722 17.9235 6.14673 17.7956 6.14673C17.6677 6.14673 17.5431 6.18722 17.4396 6.26241C17.3361 6.33759 17.2591 6.44361 17.2196 6.56526L16.9192 7.48968H15.9472C15.8193 7.48963 15.6946 7.53009 15.5911 7.60525C15.4876 7.68041 15.4105 7.78641 15.371 7.90807C15.3314 8.02972 15.3314 8.16077 15.3709 8.28244C15.4104 8.40411 15.4875 8.51014 15.591 8.58533L16.3773 9.15665L16.077 10.0811C16.0374 10.2027 16.0374 10.3338 16.0769 10.4554C16.1165 10.5771 16.1935 10.6831 16.2969 10.7583C16.4004 10.8334 16.525 10.8739 16.653 10.8739C16.7809 10.8739 16.9055 10.8335 17.009 10.7583L17.7953 10.1869L18.5817 10.7583C18.6852 10.8336 18.8099 10.8742 18.9379 10.8742ZM17.5751 9.41994L16.9278 9.89052L17.175 9.12927C17.1995 9.05395 17.1995 8.97281 17.1751 8.89749C17.1506 8.82217 17.1029 8.75653 17.0388 8.70997L16.3915 8.23963H17.1916C17.2708 8.23963 17.348 8.21456 17.412 8.16802C17.4761 8.12148 17.5238 8.05586 17.5483 7.98055L17.7956 7.21949L18.0428 7.98055C18.0673 8.05586 18.115 8.12148 18.1791 8.16802C18.2431 8.21456 18.3203 8.23963 18.3995 8.23963H19.1997L18.5523 8.70993C18.4882 8.75648 18.4405 8.82212 18.4161 8.89746C18.3916 8.97279 18.3916 9.05394 18.4161 9.12927L18.6634 9.89052L18.016 9.41994C17.9519 9.3734 17.8748 9.34833 17.7956 9.34833C17.7164 9.34833 17.6392 9.3734 17.5752 9.41994H17.5751Z" fill="white"/>
<path d="M16.5 14.2827H13.875V12.4077C13.8745 12.01 13.7164 11.6288 13.4352 11.3476C13.1539 11.0664 12.7727 10.9082 12.375 10.9077H11.625C11.5347 10.9077 11.4475 10.9403 11.3793 10.9994C11.3111 11.0586 11.2666 11.1403 11.2538 11.2297L11.1159 12.1945C11.0531 12.6326 10.8883 13.0499 10.6346 13.4126C10.381 13.7753 10.0457 14.0733 9.65578 14.2827H6.75C6.65054 14.2827 6.55516 14.3222 6.48483 14.3926C6.41451 14.4629 6.375 14.5583 6.375 14.6577V19.9077C6.375 20.0072 6.41451 20.1026 6.48483 20.1729C6.55516 20.2432 6.65054 20.2827 6.75 20.2827H9.63647L9.88195 20.4464C10.4552 20.8293 11.1292 21.0334 11.8185 21.0327H16.125C16.3422 21.0328 16.5548 20.97 16.7371 20.8519C16.9194 20.7337 17.0636 20.5653 17.1522 20.367C17.2408 20.1687 17.2701 19.949 17.2365 19.7343C17.2029 19.5197 17.1078 19.3195 16.9628 19.1577C17.1477 18.9517 17.25 18.6846 17.25 18.4077C17.25 18.1309 17.1477 17.8638 16.9628 17.6577C17.1197 17.4828 17.2178 17.2632 17.2434 17.0296C17.2689 16.7961 17.2205 16.5604 17.1051 16.3558C17.3101 16.2248 17.4671 16.0309 17.5527 15.8032C17.6382 15.5754 17.6476 15.3261 17.5794 15.0925C17.5112 14.859 17.3692 14.6538 17.1746 14.5078C16.98 14.3618 16.7433 14.2828 16.5 14.2827ZM7.125 15.0327H9.375V19.5327H7.125V15.0327ZM16.5 15.7827H16.125C16.0255 15.7827 15.9302 15.8222 15.8598 15.8926C15.7895 15.9629 15.75 16.0583 15.75 16.1577C15.75 16.2572 15.7895 16.3526 15.8598 16.4229C15.9302 16.4932 16.0255 16.5327 16.125 16.5327C16.2245 16.5327 16.3198 16.5722 16.3902 16.6426C16.4605 16.7129 16.5 16.8083 16.5 16.9077C16.5 17.0072 16.4605 17.1026 16.3902 17.1729C16.3198 17.2432 16.2245 17.2827 16.125 17.2827C16.0255 17.2827 15.9302 17.3222 15.8598 17.3926C15.7895 17.4629 15.75 17.5583 15.75 17.6577C15.75 17.7572 15.7895 17.8526 15.8598 17.9229C15.9302 17.9932 16.0255 18.0327 16.125 18.0327C16.2245 18.0327 16.3198 18.0722 16.3902 18.1426C16.4605 18.2129 16.5 18.3083 16.5 18.4077C16.5 18.5072 16.4605 18.6026 16.3902 18.6729C16.3198 18.7432 16.2245 18.7827 16.125 18.7827C16.0255 18.7827 15.9302 18.8222 15.8598 18.8926C15.7895 18.9629 15.75 19.0583 15.75 19.1577C15.75 19.2572 15.7895 19.3526 15.8598 19.4229C15.9302 19.4932 16.0255 19.5327 16.125 19.5327C16.2245 19.5327 16.3198 19.5722 16.3902 19.6426C16.4605 19.7129 16.5 19.8083 16.5 19.9077C16.5 20.0072 16.4605 20.1026 16.3902 20.1729C16.3198 20.2432 16.2245 20.2827 16.125 20.2827H11.8185C11.2773 20.2832 10.748 20.123 10.298 19.8224L10.125 19.707V14.8806C10.5895 14.6086 10.9866 14.2354 11.2867 13.7886C11.5868 13.3419 11.7822 12.8332 11.8584 12.3004L11.9502 11.6575H12.375C12.5738 11.6577 12.7645 11.7368 12.9051 11.8774C13.0457 12.018 13.1248 12.2086 13.125 12.4075V14.6575C13.125 14.7569 13.1645 14.8523 13.2348 14.9226C13.3052 14.993 13.4005 15.0325 13.5 15.0325H16.5C16.5995 15.0325 16.6948 15.072 16.7652 15.1423C16.8355 15.2126 16.875 15.308 16.875 15.4075C16.875 15.5069 16.8355 15.6023 16.7652 15.6726C16.6948 15.743 16.5995 15.7825 16.5 15.7825V15.7827Z" fill="white"/>
</g>
<defs>
<clipPath id="clip0_47_725">
<rect width="24" height="24" fill="white"/>
</clipPath>
</defs>
</svg>
