<svg width="24" height="24" viewBox="0 0 24 24" fill="none" xmlns="http://www.w3.org/2000/svg">
<g clip-path="url(#clip0_49_1222)">
<path d="M19.028 3.14444H16.8568V2.1731C16.8568 1.85884 16.514 1.71601 16.1997 1.71601H14.5142C14.1142 0.573235 13.1143 0.00184981 11.9715 0.00184981C10.8413 -0.0406391 9.8133 0.652362 9.42882 1.71601H7.77181C7.45755 1.71601 7.14328 1.85884 7.14328 2.1731V3.14444H4.97197C3.68528 3.15817 2.63262 4.1732 2.57214 5.45853V21.8287C2.57214 23.0857 3.71491 23.9999 4.97197 23.9999H19.028C20.2851 23.9999 21.4279 23.0857 21.4279 21.8287V5.45858C21.3674 4.1732 20.3147 3.15817 19.028 3.14444ZM8.286 2.85878H9.85732C10.1316 2.82531 10.3519 2.61664 10.4002 2.34454C10.5694 1.60773 11.2158 1.07884 11.9715 1.05893C12.7202 1.08163 13.3569 1.61216 13.5142 2.34454C13.5655 2.62605 13.8003 2.8374 14.0856 2.85878H15.7141V5.14432H8.286V2.85878ZM20.2851 21.8287C20.2851 22.4573 19.6566 22.8572 19.028 22.8572H4.97197C4.34344 22.8572 3.71491 22.4573 3.71491 21.8287V5.45858C3.77321 4.80435 4.31523 4.29924 4.97197 4.28727H7.14323V5.7443C7.17341 6.06442 7.45066 6.30388 7.77176 6.28715H16.1997C16.5267 6.30503 16.8126 6.06885 16.8567 5.7443V4.28721H19.028C19.6847 4.29924 20.2267 4.8043 20.285 5.45853V21.8287H20.2851Z" fill="white"/>
<path d="M9.80016 12.7723C9.58585 12.5464 9.23008 12.5337 9.00019 12.7438L7.17175 14.4865L6.40039 13.6865C6.18608 13.4606 5.83031 13.4479 5.60043 13.658C5.37912 13.8898 5.37912 14.2546 5.60043 14.4865L6.77174 15.6864C6.87312 15.7999 7.01957 15.8627 7.17169 15.8578C7.3224 15.8557 7.46616 15.7941 7.57165 15.6864L9.80005 13.5723C10.021 13.3696 10.0357 13.0262 9.83302 12.8053C9.82263 12.7938 9.81164 12.7828 9.80016 12.7723Z" fill="white"/>
<path d="M17.9995 14.0008H11.4286C11.113 14.0008 10.8572 14.2566 10.8572 14.5722C10.8572 14.8878 11.113 15.1436 11.4286 15.1436H17.9995C18.3151 15.1436 18.5709 14.8878 18.5709 14.5722C18.5709 14.2566 18.3151 14.0008 17.9995 14.0008Z" fill="white"/>
<path d="M9.80016 8.20121C9.58585 7.97531 9.23008 7.96257 9.00019 8.17266L7.17175 9.91536L6.40039 9.1154C6.18608 8.8895 5.83031 8.87676 5.60043 9.08686C5.37912 9.31871 5.37912 9.68351 5.60043 9.91536L6.77174 11.1153C6.87312 11.2288 7.01957 11.2916 7.17169 11.2867C7.3224 11.2846 7.46616 11.2229 7.57165 11.1153L9.80005 9.00117C10.021 8.79851 10.0357 8.4551 9.83302 8.23423C9.82263 8.2227 9.81164 8.21171 9.80016 8.20121Z" fill="white"/>
<path d="M17.9995 9.42969H11.4286C11.113 9.42969 10.8572 9.6855 10.8572 10.0011C10.8572 10.3167 11.113 10.5725 11.4286 10.5725H17.9995C18.3151 10.5725 18.5709 10.3167 18.5709 10.0011C18.5709 9.6855 18.3151 9.42969 17.9995 9.42969Z" fill="white"/>
<path d="M9.80016 17.3433C9.58585 17.1174 9.23008 17.1048 9.00019 17.3148L7.17175 19.0575L6.40039 18.2575C6.18608 18.0316 5.83031 18.0189 5.60043 18.229C5.37912 18.4608 5.37912 18.8256 5.60043 19.0575L6.77174 20.2574C6.87312 20.3709 7.01957 20.4337 7.17169 20.4288C7.3224 20.4267 7.46616 20.3651 7.57165 20.2574L9.80005 18.1433C10.021 17.9406 10.0357 17.5972 9.83302 17.3764C9.82263 17.3649 9.81164 17.3539 9.80016 17.3433Z" fill="white"/>
<path d="M17.9995 18.5718H11.4286C11.113 18.5718 10.8572 18.8276 10.8572 19.1432C10.8572 19.4588 11.113 19.7146 11.4286 19.7146H17.9995C18.3151 19.7146 18.5709 19.4588 18.5709 19.1432C18.5709 18.8276 18.3151 18.5718 17.9995 18.5718Z" fill="white"/>
</g>
<defs>
<clipPath id="clip0_49_1222">
<rect width="24" height="24" fill="white"/>
</clipPath>
</defs>
</svg>
