<svg width="24" height="24" viewBox="0 0 24 24" fill="none" xmlns="http://www.w3.org/2000/svg">
<g clip-path="url(#clip0_12_218)">
<g clip-path="url(#clip1_12_218)">
<path d="M10.923 2.15386C10.923 2.8336 11.4741 3.38463 12.1538 3.38463C12.8335 3.38463 13.3846 2.8336 13.3846 2.15386C13.3846 1.47413 12.8335 0.923096 12.1538 0.923096C11.4741 0.923096 10.923 1.47413 10.923 2.15386Z" stroke="white" stroke-width="2"/>
<path d="M10.923 12.0001C10.923 12.6798 11.4741 13.2308 12.1538 13.2308C12.8335 13.2308 13.3846 12.6798 13.3846 12.0001C13.3846 11.3203 12.8335 10.7693 12.1538 10.7693C11.4741 10.7693 10.923 11.3203 10.923 12.0001Z" stroke="white" stroke-width="2"/>
<path d="M10.923 21.8461C10.923 22.5259 11.4741 23.0769 12.1538 23.0769C12.8335 23.0769 13.3846 22.5259 13.3846 21.8461C13.3846 21.1664 12.8335 20.6154 12.1538 20.6154C11.4741 20.6154 10.923 21.1664 10.923 21.8461Z" stroke="white" stroke-width="2"/>
</g>
</g>
<defs>
<clipPath id="clip0_12_218">
<rect width="24" height="24" fill="white"/>
</clipPath>
<clipPath id="clip1_12_218">
<rect width="24" height="24" fill="white"/>
</clipPath>
</defs>
</svg>
