<svg width="24" height="24" viewBox="0 0 24 24" fill="none" xmlns="http://www.w3.org/2000/svg">
<g clip-path="url(#clip0_12_567)">
<g clip-path="url(#clip1_12_567)">
<path d="M22.8 0H1.2C0.537258 0 0 0.537258 0 1.2V17.2C0 17.8627 0.537258 18.4 1.2 18.4H3.8048C5.12181 21.7769 8.37535 24.0003 12 24.0003C15.6247 24.0003 18.8782 21.7769 20.1952 18.4H22.8C23.4627 18.4 24 17.8627 24 17.2V1.2C24 0.537258 23.4627 0 22.8 0ZM1.2 0.8H22.8C23.0209 0.8 23.2 0.979086 23.2 1.2V3.2H0.8V1.2C0.8 0.979086 0.979086 0.8 1.2 0.8ZM7.2108 15.6C7.2323 16.7786 7.39124 17.9506 7.6844 19.0924C6.88002 19.2032 6.08168 19.3542 5.2924 19.5448C4.52656 18.3657 4.0876 17.0044 4.0204 15.6H7.2108ZM12.4 11.5944C13.4624 11.5816 14.5036 11.5204 15.5048 11.4096C15.8026 12.516 15.9653 13.6545 15.9896 14.8H12.4V11.5944ZM12.4 10.7944V7.242C13.5652 7.486 14.6 8.7832 15.2564 10.6308C14.3336 10.7276 13.3768 10.7824 12.4 10.7944ZM11.6 7.242V10.7944C10.6232 10.7824 9.6664 10.7276 8.7436 10.6308C9.4 8.7832 10.4348 7.486 11.6 7.242ZM11.6 11.5944V14.8H8.0104C8.03466 13.6545 8.19745 12.516 8.4952 11.4096C9.4964 11.52 10.5376 11.5816 11.6 11.5944ZM8.0104 15.6H11.6V18.8056C10.5376 18.8184 9.4964 18.8796 8.4952 18.9904C8.19745 17.884 8.03466 16.7456 8.0104 15.6ZM11.6 19.6056V23.16C10.4348 22.916 9.4 21.6188 8.7436 19.7712C9.6664 19.6724 10.6232 19.6176 11.6 19.6056ZM12.4 23.16V19.6056C13.3768 19.6176 14.3336 19.6724 15.2564 19.7692C14.6 21.6168 13.5652 22.914 12.4 23.16ZM12.4 18.8076V15.6H15.9896C15.9653 16.7456 15.8026 17.884 15.5048 18.9904C14.5036 18.88 13.4624 18.8184 12.4 18.8056V18.8076ZM16.7892 15.6H19.9796C19.9124 17.0044 19.4734 18.3657 18.7076 19.5448C17.9183 19.3542 17.12 19.2032 16.3156 19.0924C16.6088 17.9506 16.7677 16.7786 16.7892 15.6ZM16.7892 14.8C16.7677 13.6214 16.6088 12.4494 16.3156 11.3076C17.12 11.1968 17.9183 11.0458 18.7076 10.8552C19.4734 12.0343 19.9124 13.3956 19.9796 14.8H16.7892ZM16.0844 10.5316C15.7488 9.43972 15.1829 8.43252 14.4248 7.578C15.9062 8.05247 17.2178 8.9473 18.2 10.1536C17.5276 10.3064 16.8192 10.4324 16.0844 10.5316ZM7.9156 10.5316C7.1808 10.4324 6.4724 10.3064 5.7996 10.1536C6.78186 8.94723 8.09361 8.0524 9.5752 7.578C8.81715 8.43252 8.25122 9.43972 7.9156 10.5316ZM5.2924 10.8552C6.08168 11.0458 6.88002 11.1968 7.6844 11.3076C7.39124 12.4494 7.2323 13.6214 7.2108 14.8H4.0204C4.0876 13.3956 4.52656 12.0343 5.2924 10.8552ZM5.8 20.2464C6.4728 20.0936 7.1812 19.9664 7.916 19.8684C8.25162 20.9603 8.81755 21.9675 9.5756 22.822C8.09401 22.3476 6.78226 21.4528 5.8 20.2464ZM14.4252 22.822C15.1833 21.9675 15.7492 20.9603 16.0848 19.8684C16.8196 19.9676 17.528 20.0936 18.2008 20.2464C17.2184 21.4528 15.9065 22.3477 14.4248 22.822H14.4252ZM22.8 17.6H20.4644C21.4853 14.01 20.1305 10.1665 17.0841 8.01017C14.0377 5.85386 9.96235 5.85386 6.91592 8.01017C3.8695 10.1665 2.51469 14.01 3.5356 17.6H1.2C0.979086 17.6 0.8 17.4209 0.8 17.2V4H23.2V17.2C23.2 17.4209 23.0209 17.6 22.8 17.6Z" fill="white"/>
<path d="M1.99998 2.39998C2.22089 2.39998 2.39998 2.22089 2.39998 1.99998C2.39998 1.77906 2.22089 1.59998 1.99998 1.59998C1.77906 1.59998 1.59998 1.77906 1.59998 1.99998C1.59998 2.22089 1.77906 2.39998 1.99998 2.39998Z" fill="white"/>
<path d="M3.59995 2.39998C3.82087 2.39998 3.99995 2.22089 3.99995 1.99998C3.99995 1.77906 3.82087 1.59998 3.59995 1.59998C3.37904 1.59998 3.19995 1.77906 3.19995 1.99998C3.19995 2.22089 3.37904 2.39998 3.59995 2.39998Z" fill="white"/>
<path d="M5.20005 2.39998C5.42096 2.39998 5.60005 2.22089 5.60005 1.99998C5.60005 1.77906 5.42096 1.59998 5.20005 1.59998C4.97913 1.59998 4.80005 1.77906 4.80005 1.99998C4.80005 2.22089 4.97913 2.39998 5.20005 2.39998Z" fill="white"/>
<path d="M10.8 2.39998H13.2C13.4209 2.39998 13.6 2.22089 13.6 1.99998C13.6 1.77906 13.4209 1.59998 13.2 1.59998H10.8C10.5791 1.59998 10.4 1.77906 10.4 1.99998C10.4 2.22089 10.5791 2.39998 10.8 2.39998Z" fill="white"/>
<path d="M17.6 2.39998H22C22.2209 2.39998 22.4 2.22089 22.4 1.99998C22.4 1.77906 22.2209 1.59998 22 1.59998H17.6C17.3791 1.59998 17.2 1.77906 17.2 1.99998C17.2 2.22089 17.3791 2.39998 17.6 2.39998Z" fill="white"/>
<path d="M1.99998 5.99995H2.79998C3.02089 5.99995 3.19998 5.82087 3.19998 5.59995C3.19998 5.37904 3.02089 5.19995 2.79998 5.19995H1.99998C1.77906 5.19995 1.59998 5.37904 1.59998 5.59995C1.59998 5.82087 1.77906 5.99995 1.99998 5.99995Z" fill="white"/>
<path d="M2.79998 8.40002H1.99998C1.77906 8.40002 1.59998 8.57911 1.59998 8.80002C1.59998 9.02094 1.77906 9.20002 1.99998 9.20002H2.79998C3.02089 9.20002 3.19998 9.02094 3.19998 8.80002C3.19998 8.57911 3.02089 8.40002 2.79998 8.40002Z" fill="white"/>
<path d="M8 5.19995H4.4C4.17909 5.19995 4 5.37904 4 5.59995C4 5.82087 4.17909 5.99995 4.4 5.99995H8C8.22091 5.99995 8.4 5.82087 8.4 5.59995C8.4 5.37904 8.22091 5.19995 8 5.19995Z" fill="white"/>
<path d="M5.19998 6.80005H1.99998C1.77906 6.80005 1.59998 6.97913 1.59998 7.20005C1.59998 7.42096 1.77906 7.60005 1.99998 7.60005H5.19998C5.42089 7.60005 5.59998 7.42096 5.59998 7.20005C5.59998 6.97913 5.42089 6.80005 5.19998 6.80005Z" fill="white"/>
</g>
</g>
<defs>
<clipPath id="clip0_12_567">
<rect width="24" height="24" fill="white"/>
</clipPath>
<clipPath id="clip1_12_567">
<rect width="24" height="24" fill="white"/>
</clipPath>
</defs>
</svg>
