<svg width="24" height="24" viewBox="0 0 24 24" fill="none" xmlns="http://www.w3.org/2000/svg">
<g clip-path="url(#clip0_12_508)">
<path d="M19.3638 7.30879L19.3378 7.31113C18.5259 7.38707 17.7762 7.76089 17.2263 8.36464L16.4583 9.21562C15.6684 9.0373 14.1763 8.6918 12.3931 8.23691C12.0666 8.15371 11.7127 8.25308 11.4696 8.49636L10.8977 9.06824C10.8469 9.1191 10.8216 9.18988 10.8286 9.26136C10.8356 9.33261 10.8741 9.3973 10.9338 9.43714L14.2508 11.6616L13.3194 12.6936L12.1556 12.3525C11.8906 12.2529 11.5896 12.3186 11.3899 12.5187L10.8204 13.088C10.7691 13.1393 10.7438 13.2111 10.7515 13.283C10.759 13.3552 10.7991 13.4199 10.8598 13.4593L12.7863 14.7036L14.0271 16.6264C14.0663 16.6873 14.1312 16.7271 14.2034 16.7349C14.2118 16.7358 14.2202 16.7363 14.2287 16.7363C14.292 16.7363 14.3531 16.7112 14.3984 16.666L14.9679 16.0962C15.169 15.8953 15.2337 15.5937 15.1374 15.3408L14.7474 14.1058L15.7906 13.1826L18.053 16.5561C18.0928 16.6158 18.1575 16.6543 18.229 16.6613C18.2367 16.662 18.2445 16.6625 18.2522 16.6625C18.3155 16.6625 18.3766 16.6374 18.4219 16.5921L18.9935 16.0205C19.2368 15.7775 19.3362 15.4236 19.253 15.0971C18.793 13.2929 18.4421 11.7754 18.2654 10.9922L19.0866 10.2654C19.7119 9.71347 20.0991 8.95175 20.1769 8.12089C20.1975 7.89918 20.119 7.68144 19.9615 7.52394C19.804 7.36644 19.5846 7.28675 19.3638 7.30879ZM11.4436 9.20113L11.809 8.83574C11.9332 8.71175 12.1113 8.66113 12.2745 8.70191C13.8815 9.11196 15.2527 9.43319 16.0896 9.6241L14.5756 11.3017L11.4436 9.20113ZM18.788 15.2157C18.8295 15.3788 18.7781 15.5569 18.6541 15.6809L18.289 16.0463L16.153 12.8618L17.8555 11.355C18.0461 12.1913 18.3729 13.5882 18.788 15.2157ZM18.7685 9.90566L14.3126 13.8495C14.3035 13.8575 14.2992 13.8682 14.2917 13.8772C14.2794 13.8917 14.2661 13.9053 14.2577 13.9222C14.2506 13.9365 14.2485 13.952 14.2444 13.9672C14.2404 13.9817 14.2343 13.9954 14.2332 14.0107C14.2314 14.0327 14.2359 14.0543 14.2402 14.0761C14.242 14.0846 14.2403 14.093 14.243 14.1014L14.244 14.1047C14.2442 14.1054 14.2444 14.106 14.2446 14.1067L14.6841 15.4981C14.7181 15.5876 14.6963 15.6891 14.6285 15.7568L14.2692 16.1164L13.1616 14.3998C13.1433 14.3712 13.1189 14.3468 13.0903 14.3283L11.37 13.2174L11.7295 12.8578C11.7968 12.7906 11.8988 12.7683 12.0038 12.8077L13.3287 13.1968C13.3409 13.2003 13.3527 13.1983 13.3649 13.1999C13.382 13.2022 13.3988 13.2057 13.416 13.2043C13.4331 13.2029 13.4484 13.1971 13.4645 13.1923C13.4777 13.1883 13.4909 13.1861 13.5034 13.1799C13.5215 13.1708 13.5363 13.1575 13.5517 13.1441C13.559 13.1378 13.5679 13.1345 13.5745 13.1271L13.5822 13.1186C13.5823 13.1185 13.5825 13.1183 13.5826 13.1182L17.5819 8.68714C18.0504 8.17269 18.6898 7.85371 19.3831 7.78902L19.4091 7.78668C19.489 7.77707 19.5661 7.8073 19.6221 7.86332C19.6784 7.91957 19.7063 7.99714 19.6988 8.07636C19.6327 8.78511 19.3022 9.43457 18.7685 9.90566Z" fill="white"/>
<path d="M8.03114 7.85182C8.03114 7.71916 7.9238 7.61182 7.79114 7.61182H6.59278C6.46013 7.61182 6.35278 7.71916 6.35278 7.85182C6.35278 7.98447 6.46013 8.09182 6.59278 8.09182H7.79114C7.9238 8.09182 8.03114 7.98447 8.03114 7.85182Z" fill="white"/>
<path d="M4.43458 8.09182H5.39294C5.5256 8.09182 5.63294 7.98447 5.63294 7.85182C5.63294 7.71916 5.5256 7.61182 5.39294 7.61182H4.43458C4.30192 7.61182 4.19458 7.71916 4.19458 7.85182C4.19458 7.98447 4.30192 8.09182 4.43458 8.09182Z" fill="white"/>
<path d="M6.27357 10.0659C6.14091 10.0659 6.03357 10.1733 6.03357 10.3059V14.3962C6.03357 14.5289 6.14091 14.6362 6.27357 14.6362C6.40623 14.6362 6.51357 14.5289 6.51357 14.3962V10.3059C6.51357 10.1733 6.40623 10.0659 6.27357 10.0659Z" fill="white"/>
<path d="M8.11036 10.0659C7.97771 10.0659 7.87036 10.1733 7.87036 10.3059V14.3962C7.87036 14.5289 7.97771 14.6362 8.11036 14.6362C8.24302 14.6362 8.35036 14.5289 8.35036 14.3962V10.3059C8.35036 10.1733 8.24302 10.0659 8.11036 10.0659Z" fill="white"/>
<path d="M8.11036 15.5131C7.97771 15.5131 7.87036 15.6204 7.87036 15.7531V19.8434C7.87036 19.976 7.97771 20.0834 8.11036 20.0834C8.24302 20.0834 8.35036 19.976 8.35036 19.8434V15.7531C8.35036 15.6204 8.24302 15.5131 8.11036 15.5131Z" fill="white"/>
<path d="M6.27357 15.5131C6.14091 15.5131 6.03357 15.6204 6.03357 15.7531V19.8434C6.03357 19.976 6.14091 20.0834 6.27357 20.0834C6.40623 20.0834 6.51357 19.976 6.51357 19.8434V15.7531C6.51357 15.6204 6.40623 15.5131 6.27357 15.5131Z" fill="white"/>
<path d="M7.1918 6.85076C8.0768 6.85076 8.7968 6.13076 8.7968 5.24599C8.7968 4.36099 8.0768 3.64099 7.1918 3.64099C6.30704 3.64099 5.58704 4.36099 5.58704 5.24599C5.58704 6.13076 6.30704 6.85076 7.1918 6.85076ZM7.1918 4.12099C7.81219 4.12099 8.3168 4.6256 8.3168 5.24599C8.3168 5.86615 7.81219 6.37076 7.1918 6.37076C6.57165 6.37076 6.06704 5.86615 6.06704 5.24599C6.06704 4.6256 6.57165 4.12099 7.1918 4.12099Z" fill="white"/>
<path d="M19.4644 4.00573H11.9836V3.53041C11.9836 2.90721 11.4767 2.40002 10.8535 2.40002H3.53041C2.90721 2.40002 2.40002 2.90721 2.40002 3.53041V6.96166C2.40002 7.32483 2.57525 7.64497 2.8423 7.85186C2.57525 8.05883 2.40002 8.37905 2.40002 8.74221V20.4696C2.40002 21.0928 2.90721 21.6 3.53041 21.6H10.8535C11.4767 21.6 11.9836 21.0928 11.9836 20.4696V19.9943H19.4644C20.6419 19.9943 21.6 19.0362 21.6 17.8587V6.14135C21.6 4.96385 20.6419 4.00573 19.4644 4.00573ZM2.88002 20.4696V8.74221C2.88002 8.38362 3.17182 8.09182 3.53041 8.09182C3.66307 8.09182 3.77041 7.98448 3.77041 7.85182C3.77041 7.71916 3.66307 7.61182 3.53041 7.61182C3.17182 7.61182 2.88002 7.32026 2.88002 6.96166V3.53041C2.88002 3.17182 3.17182 2.88002 3.53041 2.88002H10.8535C11.2121 2.88002 11.5036 3.17182 11.5036 3.53041V4.00573H9.57026C9.4376 4.00573 9.33026 4.11307 9.33026 4.24573V7.61182H8.99088C8.85823 7.61182 8.75088 7.71916 8.75088 7.85182C8.75088 7.98448 8.85823 8.09182 8.99088 8.09182H9.33026V19.7543C9.33026 19.887 9.4376 19.9943 9.57026 19.9943H9.70924V21.12H4.67463V8.86948C4.67463 8.73682 4.56729 8.62948 4.43463 8.62948C4.30198 8.62948 4.19463 8.73682 4.19463 8.86948V21.12H3.53041C3.17182 21.12 2.88002 20.8282 2.88002 20.4696ZM11.5036 20.4696C11.5036 20.8282 11.2121 21.12 10.8535 21.12H10.1892V19.9943H11.5036V20.4696ZM21.12 17.8587C21.12 18.7716 20.3773 19.5143 19.4644 19.5143H9.81026V4.48573H19.4644C20.3773 4.48573 21.12 5.22846 21.12 6.14135V17.8587Z" fill="white"/>
</g>
<defs>
<clipPath id="clip0_12_508">
<rect width="24" height="24" fill="white"/>
</clipPath>
</defs>
</svg>
