<svg width="28" height="28" viewBox="0 0 28 28" fill="none" xmlns="http://www.w3.org/2000/svg">
<g clip-path="url(#clip0_7_1036)">
<g clip-path="url(#clip1_7_1036)">
<path d="M14 3.50141C16.0767 3.50141 18.1068 4.11722 19.8335 5.27098C21.5602 6.42473 22.906 8.06461 23.7007 9.98323C24.4954 11.9019 24.7034 14.0131 24.2982 16.0499C23.8931 18.0867 22.8931 19.9576 21.4246 21.426C19.9562 22.8945 18.0852 23.8945 16.0484 24.2996C14.0116 24.7048 11.9004 24.4969 9.98182 23.7021C8.06319 22.9074 6.42332 21.5616 5.26957 19.8349C4.11581 18.1082 3.5 16.0781 3.5 14.0014C3.5 13.5373 3.31562 13.0922 2.98744 12.764C2.65925 12.4358 2.21413 12.2514 1.75 12.2514C1.28587 12.2514 0.840751 12.4358 0.512563 12.764C0.184374 13.0922 9.78078e-09 13.5373 0 14.0014C0.0003156 17.1427 1.05709 20.1926 3.00037 22.6607C4.94366 25.1288 7.66054 26.8716 10.7141 27.6089C13.7677 28.3462 16.9804 28.0351 19.8358 26.7257C22.6912 25.4162 25.0232 23.1845 26.4569 20.3895C27.8906 17.5944 28.3425 14.3984 27.7402 11.3154C27.1378 8.23235 25.5161 5.44151 23.1358 3.39163C20.7555 1.34175 17.7549 0.151965 14.6167 0.0135953C11.4784 -0.124775 8.3848 0.796315 5.83333 2.62874V1.75141C5.83333 1.28728 5.64896 0.842164 5.32077 0.513976C4.99258 0.185787 4.54746 0.00141326 4.08333 0.00141326C3.6192 0.00141326 3.17408 0.185787 2.84589 0.513976C2.51771 0.842164 2.33333 1.28728 2.33333 1.75141V7.58474C2.33333 8.55074 3.11733 9.33474 4.08333 9.33474H7.58333C8.04746 9.33474 8.49258 9.15037 8.82076 8.82218C9.14895 8.49399 9.33333 8.04887 9.33333 7.58474C9.33333 7.12061 9.14895 6.67549 8.82076 6.34731C8.49258 6.01912 8.04746 5.83474 7.58333 5.83474H7.399C9.26571 4.32133 11.5969 3.49731 14 3.50141ZM15.1667 8.75141C15.1667 8.28728 14.9823 7.84216 14.6541 7.51397C14.3259 7.18578 13.8808 7.00141 13.4167 7.00141C12.9525 7.00141 12.5074 7.18578 12.1792 7.51397C11.851 7.84216 11.6667 8.28728 11.6667 8.75141V14.5847C11.6667 15.5507 12.4507 16.3347 13.4167 16.3347H16.9167C17.3808 16.3347 17.8259 16.1504 18.1541 15.8222C18.4823 15.494 18.6667 15.0489 18.6667 14.5847C18.6667 14.1206 18.4823 13.6755 18.1541 13.3473C17.8259 13.0191 17.3808 12.8347 16.9167 12.8347H15.1667V8.75141Z" fill="white"/>
</g>
</g>
<defs>
<clipPath id="clip0_7_1036">
<rect width="28" height="28" fill="white"/>
</clipPath>
<clipPath id="clip1_7_1036">
<rect width="28" height="28" fill="white"/>
</clipPath>
</defs>
</svg>
